<?xml version="1.0" encoding="utf-8"?>
<!-- Generator: Adobe Illustrator 24.2.3, SVG Export Plug-In . SVG Version: 6.00 Build 0)  -->
<svg version="1.1" id="Capa_1" xmlns="http://www.w3.org/2000/svg" xmlns:xlink="http://www.w3.org/1999/xlink" x="0px" y="0px"
	 viewBox="0 0 874.18 338.64" style="enable-background:new 0 0 874.18 338.64;" xml:space="preserve">
<style type="text/css">
	.st0{fill:#E8A045;}
	.st1{fill:#A08EEF;}
	.st2{fill:none;stroke:#282828;stroke-width:2;stroke-miterlimit:10;}
</style>
<g>
	<g>
		<g>
			<path class="st0" d="M31.3,327.82v-77.36H0v-13.83h79.18v13.83h-31.3v77.36H31.34H31.3z"/>
			<path class="st0" d="M89.65,327.82v-91.23h16.54v91.23H89.65z"/>
			<path class="st0" d="M168.43,329.11c-9.5,0-17.63-1.9-24.38-5.74c-6.75-3.84-11.97-9.26-15.61-16.3
				c-3.64-7.04-5.42-15.33-5.42-24.91s1.82-17.87,5.42-24.83c3.64-7,8.82-12.41,15.61-16.26c6.75-3.84,14.88-5.74,24.38-5.74
				c6.11,0,11.93,0.93,17.39,2.83c5.46,1.9,9.99,4.61,13.51,8.17l-5.42,13.18c-3.88-3.28-7.85-5.66-11.89-7.2
				c-4.04-1.5-8.41-2.26-13.06-2.26c-9.22,0-16.26,2.79-21.07,8.33c-4.81,5.58-7.24,13.47-7.24,23.74c0,10.27,2.43,18.2,7.24,23.82
				c4.81,5.62,11.85,8.41,21.07,8.41c4.65,0,9.02-0.77,13.06-2.26c4.04-1.5,8.01-3.88,11.89-7.2l5.42,13.18
				c-3.56,3.44-8.05,6.15-13.51,8.09c-5.5,1.94-11.28,2.91-17.39,2.91V329.11z"/>
		</g>
		<g>
			<path class="st0" d="M109.02,104.31c0.44,0.49,1.33,0.73,2.18,0.36c0.16,0.36,0.44,0.69,0.85,0.85c0.2,0.08,0.4,0.12,0.61,0.12
				c0.49,0,0.93-0.2,1.42-0.57c0.57,0.81,1.94,1.01,3.4,1.01c0.85,0,1.7-0.08,2.43-0.12c0.4,0,0.77-0.04,1.01-0.08
				c1.82-0.08,3.11-0.49,4.12-1.74c0.93,0.36,3.4,0.93,5.98-2.67c0.77-0.24,4.57-1.66,3.92-5.78c0.57-0.53,2.39-2.43,1.33-4.89
				c0.16-0.53,0.57-2.39-0.32-3.24c-0.16-0.4-1.01-2.1-2.51-2.43c-0.89-0.2-1.86,0.2-2.79,1.17c-0.12,0.12-0.57,0.57-0.69,0.97
				c-0.85,0.49-1.21,1.37-1.29,1.7c-0.69,0.36-1.09,1.01-1.25,1.42c-1.21-0.24-2.63,0.04-4.12,0.89c-1.01-0.77-2.22-1.17-3.48-1.17
				l0,0c-1.66,0-3.28,0.73-4.57,2.14c-1.66,1.86-2.51,4.57-2.26,7.12c-0.36,0-0.73,0.08-1.01,0.28c-0.53,0.36-0.89,1.05-0.93,1.78
				l0,0l0,0c-0.73-0.04-1.33,0.16-1.82,0.61c-0.81,0.93-0.61,1.78-0.16,2.22L109.02,104.31z M127.87,91.25
				c1.78,0.69,2.47,2.63,2.47,2.63l0.65-0.2c0,0-0.81-2.26-2.87-3.07l0,0c0.2-0.4,0.57-1.01,1.25-1.13c0.69-0.12,1.9,0.24,3.8,2.63
				l0.53-0.44c-1.58-1.98-2.95-2.95-4.17-2.91c0.2-0.36,0.53-0.81,1.05-1.01c0.85-0.32,1.98,0,3.4,0.93l0.4-0.57
				c-1.29-0.85-2.39-1.25-3.36-1.13c0.04-0.08,0.12-0.12,0.16-0.16c0.77-0.77,1.5-1.09,2.14-0.97c1.25,0.24,2.02,2.06,2.02,2.06
				v0.08l0.08,0.04c0.65,0.57,0.32,2.14,0.16,2.71v0.12v0.12c1.13,2.43-1.13,4.25-1.25,4.33l-0.16,0.12v0.2
				c0.81,4.04-3.28,5.18-3.48,5.22h-0.12l-0.08,0.12c-2.06,2.91-4.12,2.87-5.18,2.63c1.66-2.67,1.74-6.55,0.12-9.66
				c-0.44-0.89-1.01-1.62-1.66-2.18c1.54-0.77,2.87-0.93,4-0.53L127.87,91.25z M109.71,102.53c0.4-0.36,0.97-0.4,1.25-0.4
				c0.28,0.04,0.49-0.04,0.57-0.16c0.08-0.08,0.2-0.24,0.2-0.53c0-0.53,0.28-1.01,0.65-1.25c0.36-0.24,0.85-0.24,1.17,0l0.65,0.49
				l-0.08-0.81c0-0.2,0.04-0.4,0.2-0.53c0.28-0.24,0.77-0.36,1.21-0.28c0.28,0,1.21,0.16,1.42,0.85l0.24,0.81l0.4-0.77
				c0.4-0.81,1.25-1.09,1.86-1.01c0.61,0.08,1.05,0.53,1.17,1.21l0.69-0.12c-0.16-0.97-0.81-1.66-1.74-1.78c-0.16,0-0.32,0-0.49,0
				c0.2-1.05,0.89-3.64,2.95-4.21c0.4,0.4,0.73,0.93,0.97,1.58c0.97,2.43,0.61,5.62-0.89,7.44l0.53,0.44
				c1.66-2.02,2.1-5.46,1.01-8.13c-0.77-1.86-2.1-2.99-3.84-3.19c-1.37-0.12-2.71,0.49-3.8,1.7c-1.01,1.13-1.66,2.71-1.9,4.37
				c0,0.04,0,0.24,0,0.36c-0.08,0.04-0.16,0.12-0.24,0.16c-0.08,0.08-0.12,0.12-0.2,0.2c-0.16-2.31,0.61-4.73,2.14-6.39
				c1.13-1.29,2.59-1.98,4.04-1.94l0,0c2.1,0,3.96,1.29,5.1,3.48c1.54,2.95,1.42,6.63-0.2,9.1c-0.61,1.21-2.67,1.82-3.8,1.82
				c-0.28,0-0.65,0-1.05,0.08c-1.66,0.12-4.69,0.4-5.26-0.65l-0.12-0.16l-0.2-0.53c-0.49,0.57-1.21,1.21-1.94,0.97
				c-0.28-0.08-0.53-0.4-0.49-0.73l0.08-0.77l-0.61,0.44c-0.69,0.49-1.42,0.36-1.74,0c-0.32-0.32-0.24-0.85,0.16-1.29L109.71,102.53
				z M114.77,98.45c0.2-1.58,0.81-2.99,1.7-4.04c0.93-1.05,2.1-1.58,3.24-1.5c0.65,0.08,1.21,0.28,1.7,0.69
				c-2.35,0.93-2.99,4.04-3.11,4.89c-0.4,0.16-0.77,0.4-1.01,0.73c-0.36-0.4-0.97-0.69-1.7-0.77
				C115.33,98.41,115.05,98.41,114.77,98.45z"/>
			<path class="st0" d="M68.22,95.7c-0.69,4.12,3.15,5.54,3.92,5.78c1.7,2.35,3.52,2.91,4.81,2.91c0.85,0,1.46-0.24,1.74-0.32
				c0.65,0.2,1.25,0.28,1.9,0.28c0.77,0,1.54-0.16,2.26-0.44c0.2,0.2,0.53,0.36,1.17,0.36c0.65,0,1.46-0.04,2.14-0.36
				c0.24,0.24,0.65,0.4,1.21,0.4c1.13,0,2.22-0.08,3.11-0.69c0.2,0.16,0.44,0.24,0.81,0.24c1.66,0.08,3.4,0.16,5.05-0.08
				c0.4,0,0.69-0.2,0.77-0.53s-0.08-0.69-0.4-0.93c-0.08-0.04-0.12-0.08-0.2-0.12c-0.12-0.08-0.24-0.12-0.28-0.2c0,0,0-0.04,0-0.08
				c0-0.08-0.08-0.2-0.16-0.28l-0.12-0.08c-0.53-0.2-1.21-0.28-1.86-0.36c-0.28,0-0.57-0.04-0.85-0.08
				c-0.2-0.65-0.93-1.09-1.66-1.13c-0.08,0-0.16,0-0.2,0c0,0-0.08-0.08-0.08-0.12c0,0-0.04-0.08-0.08-0.12
				c-0.28-0.32-0.61-0.49-0.97-0.57c0.2-2.51-0.65-5.05-2.31-6.87c-1.25-1.37-2.83-2.14-4.45-2.14c-0.04,0-0.08,0-0.12,0
				c-1.25,0-2.47,0.44-3.48,1.17c-1.54-0.81-2.91-1.13-4.12-0.89c-0.16-0.4-0.57-1.09-1.25-1.42c-0.12-0.32-0.44-1.17-1.29-1.7
				c-0.12-0.4-0.53-0.85-0.69-0.97c-0.93-0.97-1.86-1.33-2.79-1.17c-1.5,0.28-2.31,2.02-2.51,2.43c-0.89,0.89-0.49,2.71-0.32,3.24
				c-1.05,2.47,0.77,4.37,1.33,4.89L68.22,95.7z M90.66,100.11v0.08c0,0,0.2,0.24,0.36,0.32c0.16,0.12,0.36,0.12,0.57,0.12
				c0.49,0,1.01,0.36,1.01,0.77v0.28l0.28,0.04c0.32,0.08,0.73,0.12,1.13,0.16c0.57,0.04,1.13,0.12,1.58,0.24c0,0,0,0,0,0.04
				c0,0.04,0.04,0.12,0.08,0.16c0.12,0.2,0.36,0.32,0.53,0.44c0.04,0,0.12,0.08,0.16,0.08c0.12,0.08,0.12,0.16,0.12,0.16l0,0
				c0,0-0.04,0-0.16,0c-1.66,0.2-3.36,0.12-4.97,0.08c-0.32,0-0.44-0.08-0.44-0.12l-0.16-0.53l-0.4,0.36
				c-0.73,0.65-1.82,0.69-2.95,0.73c-0.32,0-0.73-0.08-0.73-0.24l-0.08-0.49l-0.44,0.28c-0.57,0.36-1.25,0.4-2.1,0.44
				c-0.4,0-0.65-0.08-0.69-0.2l-0.12-0.4l-0.36,0.16c-0.4,0.2-0.85,0.32-1.33,0.36c-1.66-1.7-2.31-4.81-1.46-7.4
				c0.2-0.57,0.53-1.33,1.13-1.98c2.18,0.61,2.83,3.52,3.03,4.53h-0.49v0.69l3.24-0.12c0.32,0,0.57,0,0.73,0.08
				c0.32,0.28,0.65,0.44,0.97,0.44c0.2,0,0.4,0,0.61,0c0.57,0,1.13,0,1.42,0.36L90.66,100.11z M81.77,93.56
				c0.44-0.32,1.01-0.61,1.7-0.69c0.93-0.12,1.94,0.28,2.83,1.09c1.29,1.21,2.1,3.11,2.06,4.93c-0.08-0.04-0.16-0.12-0.28-0.2
				c-0.36-0.28-0.85-0.24-1.17-0.24l-2.06,0.08c-0.16-0.97-0.81-4.08-3.11-5.01L81.77,93.56z M83.38,90.73L83.38,90.73
				c1.46,0,2.87,0.65,4,1.94c1.5,1.66,2.31,4.04,2.1,6.35c-0.12,0-0.2,0-0.32,0c-0.04,0-0.08,0-0.12,0c0-2.02-0.85-4.17-2.31-5.54
				c-1.05-0.97-2.26-1.46-3.4-1.29c-1.86,0.2-3.32,1.54-4,3.68c-0.77,2.31-0.53,5.58,1.21,7.68c-0.73,0-1.5-0.08-2.18-0.24
				c-1.62-2.47-1.7-6.15-0.16-9.06c1.13-2.22,2.99-3.52,5.1-3.52L83.38,90.73z M67.61,90.69c-0.16-0.57-0.49-2.14,0.16-2.71h0.08
				v-0.12c0,0,0.77-1.82,2.02-2.06c0.69-0.12,1.37,0.2,2.14,0.97c0.04,0.04,0.12,0.12,0.16,0.16c-0.93-0.08-2.06,0.28-3.36,1.13
				l0.4,0.57c1.37-0.93,2.51-1.25,3.4-0.93c0.57,0.2,0.89,0.65,1.05,1.01c-1.17-0.04-2.59,0.93-4.17,2.91l0.53,0.44
				c1.9-2.43,3.11-2.75,3.8-2.63c0.65,0.12,1.05,0.73,1.25,1.13l0,0c-2.06,0.81-2.83,2.95-2.87,3.07l0.65,0.2
				c0,0,0.69-1.94,2.47-2.63c1.13-0.44,2.47-0.24,4,0.53c-0.65,0.61-1.17,1.33-1.66,2.18c-1.58,3.11-1.54,7,0.12,9.66
				c-1.05,0.24-3.11,0.24-5.18-2.63l-0.08-0.12h-0.12c0,0-4.29-1.17-3.48-5.26v-0.2l-0.12-0.12c-0.08-0.08-2.35-1.9-1.25-4.33v-0.12
				v-0.12H67.61z"/>
			<path class="st0" d="M101.26,101.4c0,1.13-0.16,2.39-0.36,3.64v0.16l0.08,0.12c0,0,0.73,0.97,2.02,1.46l0.4,0.16v-0.4
				c0,0,0.49-3.24,0.12-6.63c4.21-1.29,5.54-5.54,5.9-7.36c0.2-1.05,0.16-1.09,0-1.21l-0.16-0.12l-0.2,0.08
				c-3.6,1.37-5.26,4-6.03,6.03c-0.28-1.09-0.65-2.02-1.13-2.79c3.48-0.36,6.19-3.28,6.19-6.83c0-2.02-0.85-3.8-2.26-5.05l1.7-2.1
				l-3.24,0.36l-0.97-1.66l-1.66,1.01l-1.29-1.05l-0.69,1.33l-2.91-1.13l0.77,2.35c-2.22,1.29-3.28,3.68-3.28,5.9
				c0,2.83,1.74,5.94,5.46,6.71c0.16,0.2,0.93,1.37,1.29,3.8c-1.21-1.86-3.4-4.04-7.08-4.65h-0.28l-0.08,0.24
				c-0.12,0.28,0.73,2.22,1.62,3.56c1.13,1.74,3.11,3.84,6.03,4.17L101.26,101.4z M103.32,98.69c0.44-1.78,1.78-4.93,5.46-6.59
				c-0.28,1.54-1.42,5.9-5.62,7.12l0.12-0.53L103.32,98.69z M105.95,81.34l-0.65,0.77c-0.28-0.2-0.61-0.4-0.93-0.61l1.58-0.2V81.34z
				 M107.41,87.61c0,2.79-1.86,5.14-4.37,5.9c4.04-5.46,1.21-10.11-0.24-11.89C105.46,82.32,107.41,84.74,107.41,87.61z
				 M103.12,80.13l0.65,1.09c-0.53-0.2-1.09-0.36-1.7-0.44L103.12,80.13z M100.65,80.21l0.65,0.53h-0.08c-0.28,0-0.57,0-0.81,0.08
				l0.28-0.57L100.65,80.21z M99.28,81.02c-0.36,0.08-0.69,0.2-1.01,0.36l-0.28-0.89l1.33,0.53H99.28z M95.03,87.61
				c0-2.55,1.54-5.3,4.81-6.03c-1.46,1.74-4.41,6.39-0.32,11.93c-3.07-0.85-4.49-3.48-4.49-5.94V87.61z M100.89,81.47
				c0,0,0.2,0,0.32,0c0.16,0,0.32,0,0.53,0c0.69,0.69,5.66,5.86,0.28,12.29c-0.24,0-0.53,0.04-0.77,0.04c-0.24,0-0.44,0-0.69-0.04
				c-5.34-6.47-0.32-11.61,0.36-12.29H100.89z M100.69,94.45c0,0,0.28,0,0.44,0c0.73,1.01,1.25,2.43,1.54,4.17l0.12,0.69v0.28
				c0.36,2.67,0.16,5.26,0.08,6.27c-0.61-0.32-1.01-0.73-1.21-0.93c0.2-1.37,0.32-2.71,0.36-3.92v-0.32v-1.09l0,0
				c-0.16-2.75-0.81-4.41-1.25-5.22L100.69,94.45z M101.3,99.87l0.4,0.89h-0.04c-4.41-0.32-6.55-4.93-7.16-6.51
				C98.55,95.17,100.49,98.13,101.3,99.87z"/>
			<path class="st0" d="M77.8,36.17c-0.28-0.36-0.28-0.93-0.12-1.33c0.04-0.12,0.12-0.24,0.24-0.32c0,0,0,0,0.04-0.04
				c-0.4,0.16-0.97,0-1.17-0.4c-0.24-0.53,0.08-1.17,0.61-1.37c-0.44,0.08-0.81,0.32-1.25,0.44c-0.4,0.16-0.93,0.2-1.25-0.08
				c-0.32-0.28-0.4-0.77-0.24-1.17c0.16-0.4,0.44-0.73,0.77-1.05c-0.69,0.16-1.29,0.81-1.94,0.61c-0.69-0.2-0.73-1.17-0.4-1.78
				c0.36-0.61,0.97-1.01,1.37-1.58c-1.01,0.49-2.1,0.85-3.24,1.13c-0.4,0.08-0.85,0.16-1.13-0.12c-0.2-0.16-0.2-0.57,0-0.73
				L68.5,28.9c-0.36,0.12-0.77,0.24-1.13,0.12c-0.36-0.12-0.65-0.57-0.44-0.85c-0.57,0.32-1.17,0.69-1.82,0.61
				c-0.4-0.04-0.69-0.2-0.89-0.57c-0.24-0.4-0.04-0.57,0.28-0.85c-0.61,0.24-1.25,1.01-1.05,1.7c0.16,0.53,0.73,0.77,1.29,0.73
				c0.53-0.04,1.01-0.32,1.46-0.61c-0.2,0.12,0.36,0.73,0.44,0.81c0.36,0.28,0.93,0.36,1.37,0.24c0.24-0.04,0.53-0.16,0.77-0.28
				c0.08-0.04,0.69-0.32,0.69-0.4c0,0.32,0.49,0.44,0.81,0.44c0.69,0,1.37,0,2.06-0.04c-0.49,0.44-0.61,1.21-0.32,1.78
				c0.32,0.57,1.05,0.89,1.7,0.73c-0.53,0.61-0.12,1.66,0.65,1.9c0.65,0.2,1.37-0.12,1.82-0.65c-0.08,0.08-0.12,0.16-0.16,0.28
				c-0.04,0.08-0.08,0.2-0.12,0.28c-0.08,0.2-0.12,0.44-0.08,0.65c0,0.2,0.12,0.36,0.2,0.53c0.08,0.16,0.24,0.28,0.4,0.32
				c0.08,0,0.16,0.04,0.24,0.04c0.2,0,0.4-0.08,0.57-0.2c-0.12,0.2-0.24,0.4-0.32,0.61s-0.2,0.4-0.2,0.65
				c-0.08,0.53,0.4,0.97,0.89,1.05c0.28,0.04,0.61,0,0.85-0.16c0.57-0.32,0.89-0.97,1.17-1.58c-0.44,0.61-1.46,0.61-1.94,0.04
				L77.8,36.17z"/>
			<path class="st0" d="M51.88,29.06c0.44-0.12,0.81-0.36,1.17-0.61c0.08-0.04,0.24-0.12,0.32-0.04s0.08,0.2,0.12,0.32
				c0.04,0.53,0.57,0.89,1.09,0.93c0.53,0,1.05-0.2,1.5-0.49c0,0.08,0,0.2-0.04,0.28c0.2,0.32,0.65,0.49,1.05,0.53
				c0.4,0,0.81-0.12,1.21-0.24c0.49-0.16,1.05-0.32,1.29-0.77c-0.24,0.24-0.57,0.53-0.93,0.49c-0.4-0.04-0.61-0.53-0.57-0.89
				c0.04-0.4,0.32-0.73,0.57-1.01c-0.69,0.4-1.42,0.73-2.18,0.93c-0.32,0.08-0.65,0.16-0.97,0.08s-0.61-0.36-0.57-0.69
				c0-0.16,0.12-0.32,0.24-0.49c0.2-0.2,0.4-0.36,0.69-0.49c-0.61,0.24-1.25,0.49-1.86,0.77c-0.44,0.2-0.93,0.36-1.46,0.36
				c-0.49,0-1.01-0.36-1.09-0.85c0-0.2,0-0.4,0.12-0.57c-0.08,0.04-0.16,0.12-0.24,0.16c-0.32,0.24-0.61,0.53-0.81,0.89
				c-0.16,0.36-0.16,0.81,0.08,1.13c0.28,0.32,0.81,0.4,1.21,0.28L51.88,29.06z"/>
			<path class="st0" d="M83.3,18.1c0,0-0.12,0.04-0.16,0.08c-0.04,0-0.12,0.04-0.16,0.08c-0.24,0.08-0.44,0.16-0.69,0.12
				c-0.36,0-0.77-0.24-0.85-0.61c-0.04-0.24,0-0.53-0.12-0.73c-0.16-0.2-0.44-0.2-0.69-0.16c-0.57,0.12-1.74,0.93-2.18,0.24
				c-0.08-0.12-0.08-0.24-0.04-0.4c0-0.08,0.04-0.2,0.08-0.28c-0.49,0.44-1.01,0.57-1.58,0.89c-0.57,0.28-1.13,0.57-1.7,0.81
				c-0.36,0.16-0.81,0.24-1.09-0.08c-0.32-0.4,0-1.09,0.32-1.42c0.32-0.36,0.32-0.36,0.73-0.61c-1.5,0.61-2.79,0.93-4.41,1.46
				c-1.62,0.57-3.19,1.25-4.45,2.43c-0.2,0.2-0.4,0.4-0.44,0.65c-0.04,0.24,0.08,0.57,0.32,0.65c-1.78,0.57-3.36,1.78-4.37,3.36
				c-0.2,0.32-0.36,0.81-0.08,1.05c0.12,0.12,0.32,0.12,0.53,0.12c0.53,0,1.05-0.2,1.5-0.49c-0.28-0.2-0.36-0.65-0.24-0.97
				s0.36-0.61,0.65-0.85c1.01-0.97,2.22-1.74,3.52-2.22c-0.2,0.08-0.44-0.12-0.44-0.32s0.12-0.4,0.28-0.57
				c0.12-0.16,0.24-0.28,0.4-0.44c0.61-0.61,1.33-1.09,2.06-1.46c0.81-0.4,1.66-0.73,2.51-1.01c0.12,0,0.24-0.08,0.36-0.12
				c0.04,0,0.32-0.08,0.32-0.12c-0.24,0.81-0.32,1.98,0.85,1.98c1.17,0,2.35-0.53,3.15-1.42c-0.24,0.36-0.49,0.85-0.2,1.21
				c0.24,0.32,0.73,0.32,1.13,0.2c0.93-0.2,1.82-0.69,2.51-1.29c-0.28,0.36-0.57,0.93-0.24,1.29c0.04,0.04,0.08,0.08,0.12,0.08
				c0.2,0.08,0.44,0.08,0.65,0.04c0.32-0.04,0.65-0.16,0.93-0.28c0.4-0.16,0.77-0.4,1.05-0.73c0,0,0.2-0.2,0.16-0.2L83.3,18.1z"/>
			<path class="st0" d="M59.16,37.1c-1.42,0.69-2.91,1.21-4.45,1.5c-0.44,0.08-1.09,0-1.17-0.44c0-0.2,0.08-0.4,0.2-0.57
				c0.53-0.77,1.25-1.46,2.06-1.9c-1.33,0.65-2.79,1.09-4.29,1.33c-0.61,0.08-1.42,0-1.46-0.65c0-0.24,0.16-0.49,0.32-0.65
				c0.57-0.69,1.25-1.29,2.06-1.78c-1.25,0.81-2.59,1.46-4,1.86c-0.57,0.16-1.25,0.28-1.74-0.04c-0.32-0.24-0.36-0.77-0.2-1.09
				c-0.85,0.49-1.82,0.73-2.79,0.69c-0.16,0-0.36,0-0.49-0.16c-0.44-0.4,0.08-1.21,0.49-1.62c-0.57,0.57-1.13,1.13-1.54,1.82
				c-0.2,0.36-0.36,0.93,0,1.17c0.12,0.08,0.32,0.08,0.49,0.08c0.32,0,0.69,0,1.01-0.08c0.2,0,0.4-0.08,0.61-0.12
				c0.24-0.08,0.49-0.16,0.69-0.24c0.12-0.04,0.61-0.2,0.65-0.32c-0.32,0.81,0.57,1.7,1.46,1.74c0.89,0,1.7-0.49,2.43-0.97
				c-0.28,0.4,0,1.01,0.44,1.25c0.44,0.2,1.01,0.16,1.5,0.04c0.89-0.16,1.74-0.44,2.55-0.77c-0.32,0.77-1.5,1.42-1.09,2.14
				c0.16,0.32,0.53,0.44,0.89,0.53c1.37,0.24,2.87-0.04,4-0.85c0.24-0.16,0.53-0.36,0.85-0.36c0.24,0,0.44,0.16,0.69,0.28
				c0.49,0.2,1.05,0.16,1.46-0.12c-0.85,0.08-1.66-0.81-1.5-1.62L59.16,37.1z"/>
			<path class="st0" d="M40.72,42.77c-0.04-0.2,0-0.4,0.08-0.61c0-0.08,0.08-0.12,0.12-0.16c-0.08,0-0.16,0.08-0.24,0.12
				c-0.08,0.04-0.16,0.12-0.24,0.16c-0.16,0.08-0.32,0.16-0.53,0.24c-0.36,0.16-0.73,0.24-1.09,0.28c-0.24,0-0.53,0-0.77,0
				c-0.12,0-0.24,0-0.4-0.04c-0.12,0-0.2,0-0.28-0.12c-0.08-0.12-0.12-0.24-0.16-0.36c0-0.12,0-0.28,0-0.4c0,0,0-0.08,0.04-0.12
				c0.04-0.12,0.08-0.24,0.16-0.32c0.08-0.08,0.16-0.2,0.24-0.28c-0.81,0.53-1.74,0.93-2.67,1.13c-0.16,0-0.32,0.04-0.44,0
				c-0.28-0.16-0.16-0.61,0-0.85c0.77-1.25,1.78-2.31,2.87-3.32c-1.17,0.77-2.22,1.7-3.15,2.71c-0.4,0.4-0.77,0.97-0.61,1.5
				c0.16,0.49,0.73,0.73,1.21,0.69c0.49,0,0.97-0.28,1.42-0.53c0.12-0.08,0.24-0.12,0.36-0.2c0.12-0.04,0.2-0.08,0.32-0.16
				c-0.12,0.36-0.2,0.73-0.16,1.09c0,0.16,0.04,0.32,0.12,0.49c0.08,0.12,0.2,0.24,0.36,0.28c0.16,0,0.36,0,0.53-0.04
				c0.24-0.04,0.49-0.12,0.73-0.24c0.36-0.12,0.73-0.32,1.05-0.53c0.24-0.16,0.49-0.32,0.69-0.53c0,0,0.08-0.12,0.16-0.12
				c0,0.04,0,0.12,0,0.2c0,0.08-0.04,0.16-0.08,0.24c0,0.16,0,0.36,0.04,0.53c0.08,0.2,0.2,0.36,0.4,0.49
				c0.08,0.04,0.16,0.04,0.28,0.04s0.2,0,0.32,0c0.36,0,0.69-0.24,1.01-0.44c0.89-0.65,1.62-1.5,2.06-2.51
				c-0.97,0.69-2.06,1.29-3.19,1.74c-0.12,0.04-0.57,0.2-0.65,0L40.72,42.77z"/>
			<path class="st0" d="M137.94,27.28c0.32,0.28,0.53,0.44,0.28,0.85c-0.2,0.36-0.49,0.53-0.89,0.57c-0.65,0.08-1.25-0.28-1.82-0.61
				c0.2,0.32-0.08,0.77-0.44,0.85c-0.36,0.12-0.77,0-1.13-0.12l-1.58-0.53c0,0,0.2,0.57,0,0.73c-0.32,0.24-0.77,0.2-1.13,0.12
				c-1.09-0.24-2.18-0.65-3.24-1.13c0.4,0.57,1.01,1.01,1.37,1.58c0.36,0.61,0.28,1.58-0.4,1.78c-0.65,0.2-1.29-0.44-1.94-0.61
				c0.28,0.32,0.61,0.65,0.77,1.05c0.16,0.4,0.08,0.93-0.24,1.17c-0.32,0.28-0.85,0.24-1.25,0.08c-0.4-0.16-0.81-0.4-1.25-0.44
				c0.53,0.2,0.85,0.85,0.61,1.37c-0.2,0.4-0.77,0.61-1.17,0.4c0,0,0,0,0.04,0.04c0.08,0.08,0.16,0.2,0.24,0.32
				c0.2,0.4,0.2,0.97-0.12,1.33c-0.49,0.57-1.5,0.53-1.94-0.04c0.28,0.61,0.61,1.25,1.17,1.58c0.24,0.16,0.57,0.2,0.85,0.16
				c0.49-0.08,0.97-0.53,0.89-1.05c0-0.24-0.12-0.44-0.2-0.65s-0.2-0.4-0.32-0.61c0.16,0.12,0.32,0.2,0.57,0.2
				c0.08,0,0.16,0,0.24-0.04c0.16-0.08,0.28-0.2,0.4-0.32c0.12-0.16,0.2-0.36,0.2-0.53c0-0.2,0-0.44-0.08-0.65
				c0-0.08-0.08-0.2-0.12-0.28c-0.04-0.08-0.08-0.2-0.16-0.28c0.44,0.53,1.17,0.81,1.82,0.65c0.77-0.24,1.17-1.29,0.65-1.9
				c0.65,0.16,1.37-0.12,1.7-0.73c0.32-0.57,0.2-1.33-0.32-1.78c0.69,0,1.37,0,2.06,0.04c0.36,0,0.81-0.08,0.81-0.44
				c0,0.08,0.61,0.36,0.69,0.4c0.24,0.12,0.49,0.24,0.77,0.28c0.44,0.08,1.01,0,1.37-0.24c0.08-0.08,0.65-0.69,0.44-0.81
				c0.44,0.28,0.93,0.57,1.46,0.61c0.53,0.04,1.13-0.2,1.29-0.73c0.2-0.69-0.4-1.46-1.05-1.7L137.94,27.28z"/>
			<path class="st0" d="M143.88,29.46c-0.36,0.04-0.65-0.2-0.93-0.49c0.28,0.44,0.81,0.61,1.29,0.77c0.4,0.12,0.77,0.24,1.21,0.24
				c0.4,0,0.85-0.16,1.05-0.53c0-0.08,0-0.2-0.04-0.28c0.44,0.28,0.97,0.53,1.5,0.49c0.53,0,1.05-0.4,1.09-0.93
				c0-0.12,0-0.24,0.12-0.32c0.08-0.08,0.24,0,0.32,0.04c0.36,0.24,0.77,0.49,1.17,0.61c0.44,0.12,0.93,0.04,1.21-0.28
				c0.24-0.32,0.24-0.77,0.08-1.13s-0.49-0.65-0.81-0.89c-0.08-0.04-0.16-0.12-0.24-0.16c0.08,0.2,0.12,0.36,0.12,0.57
				c-0.08,0.49-0.57,0.81-1.09,0.85c-0.49,0-0.97-0.16-1.46-0.36c-0.61-0.24-1.25-0.49-1.86-0.77c0.24,0.12,0.49,0.28,0.69,0.49
				c0.12,0.12,0.24,0.28,0.24,0.49c0,0.32-0.24,0.61-0.57,0.69c-0.32,0.08-0.65,0-0.97-0.08c-0.77-0.2-1.5-0.53-2.18-0.93
				c0.24,0.28,0.53,0.61,0.57,1.01c0.04,0.4-0.16,0.85-0.57,0.89L143.88,29.46z"/>
			<path class="st0" d="M119.42,18.3c0.32,0.28,0.69,0.53,1.05,0.73c0.28,0.12,0.61,0.24,0.93,0.28c0.2,0.04,0.49,0.04,0.65-0.04
				c0.04,0,0.08-0.04,0.12-0.08c0.32-0.32,0.04-0.89-0.24-1.29c0.73,0.65,1.58,1.09,2.51,1.29c0.4,0.08,0.89,0.12,1.13-0.2
				c0.24-0.36,0.04-0.85-0.2-1.21c0.77,0.89,1.94,1.42,3.15,1.42c1.17,0,1.09-1.17,0.85-1.98c0,0,0.28,0.08,0.32,0.12
				c0.12,0,0.24,0.08,0.36,0.12c0.85,0.28,1.7,0.61,2.51,1.01c0.77,0.36,1.5,0.85,2.06,1.46c0.12,0.12,0.28,0.28,0.4,0.44
				s0.28,0.36,0.28,0.57c0,0.2-0.24,0.44-0.44,0.32c1.29,0.53,2.51,1.29,3.52,2.22c0.24,0.24,0.53,0.53,0.65,0.85
				c0.12,0.32,0.04,0.77-0.24,0.97c0.44,0.28,0.97,0.49,1.5,0.49c0.2,0,0.36,0,0.53-0.12c0.28-0.24,0.12-0.73-0.08-1.05
				c-1.01-1.58-2.59-2.79-4.37-3.36c0.24-0.04,0.4-0.36,0.32-0.65c-0.04-0.24-0.24-0.49-0.44-0.65c-1.25-1.17-2.83-1.86-4.45-2.43
				c-1.62-0.57-3.28-1.01-4.81-1.74c0.4,0.24,0.81,0.53,1.09,0.89c0.28,0.32,0.65,1.01,0.32,1.42c-0.28,0.32-0.73,0.24-1.09,0.08
				c-0.57-0.24-1.13-0.53-1.7-0.81c-0.57-0.28-1.05-0.44-1.58-0.89c0.04,0.08,0.08,0.16,0.08,0.28c0,0.12,0,0.28-0.04,0.4
				c-0.44,0.73-1.62-0.12-2.18-0.24c-0.24-0.04-0.53-0.04-0.69,0.16c-0.16,0.2-0.08,0.49-0.12,0.73c-0.08,0.36-0.49,0.61-0.85,0.61
				c-0.24,0-0.49-0.04-0.69-0.12c-0.04,0-0.12-0.04-0.16-0.08c0,0-0.12-0.08-0.16-0.08c-0.08,0,0.12,0.2,0.16,0.2L119.42,18.3z"/>
			<path class="st0" d="M143.36,38.84c0.24-0.08,0.44-0.24,0.69-0.28c0.32,0,0.57,0.2,0.85,0.36c1.13,0.81,2.63,1.09,4,0.85
				c0.36-0.08,0.73-0.2,0.89-0.53c0.4-0.77-0.77-1.37-1.09-2.14c0.81,0.36,1.66,0.61,2.55,0.77c0.49,0.12,1.05,0.16,1.5-0.04
				s0.73-0.85,0.44-1.25c0.73,0.49,1.54,1.01,2.43,0.97c0.89,0,1.78-0.89,1.46-1.74c0.04,0.12,0.53,0.24,0.65,0.32
				c0.24,0.08,0.44,0.16,0.69,0.24c0.2,0.04,0.4,0.08,0.61,0.12c0.32,0.08,0.69,0.08,1.01,0.08c0.16,0,0.32,0,0.49-0.08
				c0.36-0.24,0.24-0.81,0-1.17c-0.4-0.73-0.97-1.25-1.54-1.82c0.4,0.44,0.93,1.21,0.49,1.62c-0.12,0.12-0.32,0.16-0.49,0.16
				c-0.97,0.04-1.94-0.2-2.79-0.69c0.2,0.32,0.16,0.85-0.2,1.09c-0.49,0.36-1.17,0.24-1.74,0.04c-1.42-0.4-2.79-1.05-4-1.86
				c0.77,0.49,1.46,1.09,2.06,1.78c0.16,0.2,0.32,0.4,0.32,0.65c0,0.61-0.85,0.73-1.46,0.65c-1.5-0.24-2.95-0.69-4.29-1.33
				c0.85,0.44,1.54,1.13,2.06,1.9c0.12,0.16,0.24,0.36,0.2,0.57c-0.08,0.44-0.73,0.53-1.17,0.44c-1.54-0.28-3.03-0.77-4.45-1.5
				c0.16,0.85-0.65,1.7-1.5,1.62c0.44,0.28,1.01,0.32,1.46,0.12L143.36,38.84z"/>
			<path class="st0" d="M160.1,43.53c0.28,0.2,0.65,0.4,1.01,0.44c0.12,0,0.2,0,0.32,0c0.08,0,0.16,0,0.28-0.04
				c0.2-0.12,0.32-0.28,0.4-0.49c0.04-0.16,0.08-0.32,0.04-0.53c0-0.08,0-0.16-0.08-0.24c0-0.04,0-0.12,0-0.2
				c0.04,0,0.12,0.08,0.16,0.12c0.2,0.2,0.44,0.36,0.69,0.53c0.32,0.2,0.69,0.4,1.05,0.53c0.24,0.08,0.49,0.16,0.73,0.24
				c0.16,0.04,0.36,0.08,0.53,0.04c0.16,0,0.28-0.16,0.36-0.28c0.08-0.12,0.12-0.32,0.12-0.49c0-0.36-0.04-0.73-0.16-1.09
				c0.08,0.08,0.2,0.08,0.32,0.16c0.12,0.08,0.24,0.12,0.36,0.2c0.44,0.24,0.89,0.49,1.42,0.53c0.49,0,1.05-0.2,1.21-0.69
				c0.16-0.53-0.2-1.09-0.61-1.5c-0.93-1.01-1.98-1.94-3.15-2.71c1.09,0.97,2.06,2.06,2.87,3.32c0.16,0.28,0.32,0.69,0,0.85
				c-0.12,0.08-0.28,0.04-0.44,0c-0.97-0.2-1.86-0.57-2.67-1.13c0.12,0.08,0.16,0.16,0.24,0.28c0.08,0.08,0.12,0.2,0.16,0.32
				c0,0,0,0.08,0.04,0.12c0,0.12,0.04,0.28,0,0.4c0,0.12-0.08,0.28-0.16,0.36c-0.08,0.08-0.2,0.08-0.28,0.12
				c-0.12,0-0.24,0.04-0.4,0.04c-0.24,0-0.53,0-0.77,0c-0.36-0.04-0.77-0.12-1.09-0.28c-0.16-0.08-0.36-0.16-0.53-0.24
				c-0.08-0.04-0.16-0.08-0.24-0.16c-0.08-0.04-0.16-0.12-0.24-0.12c0,0.08,0.08,0.12,0.12,0.16c0.08,0.2,0.12,0.4,0.08,0.61
				c-0.04,0.2-0.53,0.08-0.65,0c-1.13-0.44-2.18-1.05-3.19-1.74c0.44,0.97,1.17,1.86,2.06,2.51L160.1,43.53z"/>
			<path class="st0" d="M98.99,65.45c-2.71-0.36-3.56-3.24-3.56-3.24l-0.69,1.05c1.82,2.59,4.21,2.14,4.21,2.14L98.99,65.45z"/>
			<path class="st0" d="M93.49,22.43c-0.49,0-0.85,0.36-0.85,0.85s0.36,0.85,0.85,0.85s0.85-0.36,0.85-0.85S93.98,22.43,93.49,22.43
				z M93.49,23.64c-0.2,0-0.36-0.16-0.36-0.36s0.16-0.36,0.36-0.36c0.2,0,0.36,0.16,0.36,0.36S93.7,23.64,93.49,23.64z"/>
			<path class="st0" d="M190.99,74.31c-0.28-0.4-0.77-0.65-1.25-0.61l-11.36,2.47l-1.21,6.11l-2.95,1.94
				c-0.04-5.22-0.28-10.72-0.73-16.38l6.03,1.29l6.71-9.26c0.32-0.44,0.32-1.05,0-1.54c-0.28-0.4-0.73-0.65-1.25-0.61L173.6,60.2
				l-1.21,6.11l-27.13,17.75c-0.12-2.35-0.28-4.69-0.49-7.12c0-0.08,0-0.16,0-0.2c0.65,0.08,1.29,0.12,1.86,0.12
				c1.5,0,2.79-0.28,3.92-1.01c3.76-2.43,4.93-9.75,5.14-11.16v-0.16l-0.36-0.24c-0.69-0.49-2.43-1.82-2.91-3.8
				c0.61,0.08,1.21,0.2,1.78,0.4c0.53,0.2,1.05,0.44,1.66,0.73c1.54,0.73,3.4,1.62,5.62,1.62c0.73,0,1.5-0.08,2.31-0.32
				c3.56-1.21,4.97-2.99,5.05-3.07l0.4-0.49l-4.45-0.4l1.42-4.12l-0.89,0.65c0,0-2.1,1.54-3.07,1.9h-0.2
				c-0.85,0.32-1.78,0.65-4.53-0.44c-1.66-0.69-3.11-0.93-4.37-0.81c-1.58,0.2-2.71,1.17-3.68,2.02s-2.18,1.9-2.55,3.24v0.16
				c-0.08,0.2-0.12,0.44-0.16,0.65v0.08l0,0c-0.04,0.4-0.04,0.85,0,1.25c0.08,0.61,0.24,1.21,0.49,1.78c0.2,0.44,0.4,0.85,0.69,1.25
				l0,0c-2.75,0-6.51-0.53-11.57-2.1l0,0l0,0c-3.68-1.13-7.32-1.74-10.8-1.74l0,0c-4.97,0-9.18,1.13-12.62,2.67
				c0-0.12,0-0.2-0.08-0.32c-0.08-0.28-0.24-0.53-0.4-0.77c-0.4-0.65-0.81-1.33-0.89-2.1c-0.12-0.85,0-1.74,0.16-2.59
				c0.2-1.25,0.12-2.39-0.2-3.48c-0.2-0.69-0.49-1.25-0.97-1.74c-0.2-0.2-0.36-0.4-0.53-0.65c-0.08-0.08-0.16-0.2-0.24-0.28
				c0.44-0.69,0.65-1.37,0.65-2.1c0-0.08,0.08-0.16,0.12-0.28l0.08-0.08c0,0,0.12-0.2,0.2-0.28c0.12-0.16,0.2-0.28,0.32-0.44
				c0.24-0.4,0.32-0.89,0.28-1.42v-0.77c0,0,0.24-0.16,0.32-0.24c0.4,0.85,1.09,1.37,1.98,1.42c0.85,0,1.86-0.44,2.55-1.13
				c0.16,0.2,0.36,0.4,0.69,0.53c0.77,0.28,1.46-0.2,1.7-0.36c0.65-0.44,1.25-0.89,1.74-1.58c0.24,0.08,0.49,0.08,0.69,0.04
				c0.85-0.12,1.37-1.01,1.66-1.66v-0.12c0.2-0.32,0.24-0.36,0.32-0.4c0.65-0.32,0.93-0.93,1.13-1.46c0.08,0,0.16,0,0.24-0.08
				c0.28-0.12,0.44-0.12,0.69,0.08c0.4,0.32,0.89,0.32,1.33,0.12c0.36,0.36,0.81,0.53,1.29,0.44c0.32-0.04,0.61-0.2,0.89-0.4
				c0.12,0.08,0.24,0.16,0.4,0.24c0.28,0.12,0.44,0.32,0.77,0.73l0.12,0.16c0.65,0.85,1.33,1.01,1.78,1.01
				c0.36,0,0.89-0.12,1.37-0.61c0.73,0.49,1.33,0.49,1.74,0.36c0.4-0.12,1.01-0.44,1.42-1.33c0.36-0.77,0.57-1.5,0.61-2.22
				c0.4,0,0.77-0.2,1.09-0.53c0.12,0.08,0.2,0.16,0.28,0.24c0.16,0.12,0.28,0.24,0.4,0.32c0.77,0.53,1.62,1.01,2.47,1.42
				c0.28,0.12,0.61,0.28,0.97,0.32c0.36,0,0.61,0,0.81-0.08c0.08,0.08,0.24,0.16,0.4,0.28c2.39,1.66,3.84,2.47,4.89,1.86
				c0.12-0.08,0.28-0.2,0.44-0.4c1.37,0.97,2.83,1.94,4.53,2.55c0.36,0.12,0.73,0.12,1.05,0c0.28-0.08,0.49-0.24,0.61-0.4
				c0.36,0.24,0.73,0.53,1.13,0.81c1.25,0.93,2.55,1.86,4.04,2.43c0.89,0.4,1.46,0.24,1.82,0c0.44-0.28,0.69-0.77,0.77-1.25
				c0.81,0.69,1.62,1.37,2.91,1.74h0.08c0.69,0.16,1.13,0,1.42-0.28c0.97,0.77,1.94,1.54,3.11,2.1c0.57,0.28,1.21,0.2,1.7-0.16
				c0.24-0.2,0.36-0.4,0.44-0.61c0.93,0.44,1.82,0.85,2.63,1.46c0.36,0.28,1.37,1.01,2.43,0.32c0.2-0.16,0.44-0.36,0.57-0.69
				c0.53,0.4,1.01,0.81,1.58,1.17c0.49,0.36,1.94,1.33,2.99,0.77c0.24-0.12,0.57-0.4,0.69-0.93c0.32,0.2,0.65,0.4,1.01,0.61
				c0.53,0.28,1.05,0.65,1.58,1.01c1.13,0.77,2.31,1.58,3.72,1.86h0.08c0,0,0.16,0,0.2,0c0.32,0,0.61-0.08,0.85-0.28
				c0.32-0.28,0.49-0.69,0.4-1.21c-0.2-1.98-1.46-3.4-2.63-4.69c-2.99-3.32-6.51-6.23-9.91-9.1c-1.29-1.09-2.63-2.18-3.88-3.28
				c-8.61-7.52-17.59-14.36-27.34-20.91c-8.57-5.74-17.27-8.86-25.8-9.26c-3.68-0.16-6.59,0.28-8.9,1.42
				c-5.3,2.75-3.6,8.45-2.35,12.62l0.12,0.36c0.73,2.26,0.81,3.84,0.28,4.77c-0.24,0.36-0.57,0.61-1.05,0.81v-0.04l-0.12-0.12
				c-2.18-2.51-5.62-2.35-6.63-2.22c-0.4-0.24-0.77-0.53-0.97-0.69c0.12-1.58-0.24-3.03-1.01-4.21c-0.24-0.4-0.57-0.73-0.89-1.05
				l0,0c0,0,0-0.04,0-0.08c-0.04-0.57-0.28-1.09-0.69-1.5c-0.49-0.44-1.17-0.73-1.94-0.69c-0.69,0-1.29,0.24-1.74,0.4h-0.12
				c-0.4,0.2-0.77,0.36-1.05,0.28c-0.04,0-0.12-0.04-0.2-0.08c0.49-2.71,0-5.18-1.37-6.83C90.3,9,85.45,8.6,81.81,8.8
				c-8.57,0.4-17.27,3.56-25.8,9.26c-9.79,6.55-18.72,13.39-27.34,20.91c-1.25,1.09-2.59,2.22-3.88,3.28
				c-3.4,2.83-6.92,5.78-9.91,9.1c-1.13,1.25-2.43,2.67-2.59,4.65c-0.08,0.81,0.36,1.21,0.57,1.33c0.2,0.12,0.44,0.2,0.73,0.2
				c0.69,0,1.58-0.36,2.67-1.09c0.65-0.44,1.25-0.81,1.86-1.17c0.53-0.32,1.05-0.61,1.58-0.97c0.2-0.12,0.49-0.08,0.61,0.12
				c0.16,0.28,0.4,0.44,0.57,0.57c0.93,0.44,2.18-0.16,4.08-1.66c0.2-0.16,0.44-0.12,0.61,0.04c0.12,0.16,0.24,0.24,0.36,0.36
				c1.01,0.65,2.02-0.08,2.43-0.36c0.69-0.53,1.46-0.89,2.26-1.29c0.2-0.08,0.4,0,0.53,0.16c0.08,0.12,0.16,0.2,0.28,0.28
				c0.49,0.36,1.13,0.44,1.66,0.16c1.05-0.49,1.98-1.17,2.83-1.86c0.08-0.08,0.2-0.16,0.28-0.24c0.32,0.28,0.77,0.44,1.42,0.32h0.08
				c1.05-0.32,1.78-0.81,2.43-1.37c0.2-0.16,0.53-0.12,0.65,0.16s0.32,0.53,0.61,0.73c0.36,0.2,0.93,0.4,1.74,0
				c1.54-0.61,2.83-1.54,4.08-2.47c0.36-0.28,0.77-0.53,1.13-0.81c0.16,0.16,0.36,0.28,0.61,0.36c0.32,0.12,0.69,0.08,1.05,0
				c1.54-0.57,2.91-1.42,4.21-2.31c0.16-0.12,0.4-0.08,0.53,0.04c0.16,0.16,0.36,0.24,0.61,0.32c1.01,0.24,2.39-0.57,4.41-1.98
				c0.16-0.12,0.32-0.24,0.44-0.28c0.2,0.08,0.44,0.12,0.81,0.08h0.12c1.09-0.32,1.98-0.89,2.87-1.46l0.49-0.32
				c0,0,0.24-0.16,0.36-0.32c0.08-0.04,0.16-0.16,0.28-0.24c0.24,0.24,0.53,0.4,0.81,0.49c0.16,0,0.28,0.2,0.32,0.36
				c0.16,1.21,0.69,2.67,1.78,3.15c0.36,0.16,0.97,0.28,1.7-0.12c0.16-0.08,0.32-0.08,0.49,0c0.44,0.32,0.85,0.4,1.17,0.4
				c0.44,0,1.13-0.16,1.78-1.01l0.12-0.16c0.28-0.4,0.49-0.61,0.77-0.73c0.16-0.08,0.28-0.16,0.4-0.24c0.24,0.24,0.57,0.36,0.89,0.4
				c0.49,0.08,0.97-0.08,1.29-0.44c0.4,0.2,0.93,0.2,1.33-0.12c0.24-0.2,0.4-0.24,0.69-0.08c0.08,0,0.16,0.08,0.24,0.08
				c0.16,0.53,0.44,1.17,1.13,1.46c0.08,0.04,0.12,0.08,0.28,0.4l0.08,0.16c0.28,0.65,0.81,1.5,1.66,1.66c0.2,0,0.53,0,0.81-0.12
				c0,0,0,0,0,0.04l0.12,0.49l0.4-0.28c0.65-0.4,1.25-1.17,1.7-2.06c0.2,1.05,0.61,1.98,1.17,2.83c-1.86,1.54-2.83,4.08-2.43,6.35
				l0.08,0.49l0.4-0.24c0.69-0.4,1.33-1.13,1.82-2.1c0.2,1.29,0.73,2.55,1.46,3.56c-1.86,1.94-2.26,4.25-1.66,6.39l0.12,0.49
				l0.4-0.28c0.65-0.44,1.17-1.21,1.58-2.14c0.12,0.65,0.28,1.25,0.53,1.82c0.53,1.21,0.44,1.5,1.46,2.26
				c-0.2,0.28-0.36,0.57-0.49,0.85c-3.28-1.37-7.28-2.39-11.97-2.39l0,0c-3.52,0-7.12,0.57-10.8,1.74l0,0l0,0
				c-5.1,1.58-8.82,2.1-11.57,2.1l0,0c0.24-0.4,0.49-0.81,0.69-1.25c0.24-0.57,0.4-1.17,0.49-1.78c0.04-0.4,0.04-0.85,0-1.25l0,0
				V62.1c0-0.2-0.08-0.44-0.12-0.65v-0.16c-0.4-1.33-1.62-2.39-2.59-3.24s-2.1-1.82-3.68-2.02c-1.25-0.16-2.71,0.12-4.37,0.81
				c-2.71,1.09-3.68,0.81-4.53,0.53h-0.2c-0.97-0.4-3.07-1.94-3.07-1.94l-0.89-0.65l1.42,4.12l-4.45,0.4l0.4,0.49
				c0,0,1.5,1.86,5.05,3.07c0.81,0.24,1.58,0.32,2.31,0.32c2.22,0,4.04-0.89,5.62-1.62c0.57-0.28,1.13-0.53,1.66-0.73
				c0.61-0.2,1.17-0.36,1.78-0.4c-0.49,1.94-2.18,3.32-2.91,3.8l-0.36,0.24v0.16c0.2,1.46,1.37,8.73,5.18,11.16
				c1.13,0.73,2.43,1.01,3.92,1.01c0.57,0,1.17-0.04,1.78-0.12c-0.24,2.47-0.4,4.89-0.53,7.32L30.65,66.26l-1.21-6.11l-11.36-2.47
				c-0.49,0-0.97,0.2-1.25,0.61c-0.32,0.49-0.28,1.05,0,1.54l6.71,9.26l6.03-1.29c-0.44,5.66-0.69,11.16-0.73,16.38l-2.95-1.94
				l-1.21-6.11L13.3,73.66c-0.49-0.04-0.97,0.2-1.25,0.61c-0.32,0.49-0.28,1.05,0,1.54l6.71,9.26l5.82-1.25
				c-4.17,31.26,0.53,52.53,5.18,64.9c4.81,12.7,10.43,18.72,11.36,19.65c1.54,1.78,11.57,12.7,27.13,12.7
				c6.71,0,14.48-2.06,22.97-7.8c-2.67,8.69-9.46,18.97-9.54,19.09l-0.36,0.57h0.69c3.07-0.12,5.54,0.12,7.4,0.49l-1.13,4.69
				c-0.16,0.44-0.12,0.77-0.12,0.77c0,0.24,0.08,0.77,0.53,1.17c0.73,0.65,2.02,0.81,3.88,0.53c0.85-0.16,1.5-0.16,2.02-0.12
				l0.16,4.97c0,0,0,0.2,0,0.28c0,0.12,0.08,0.24,0.16,0.36c0.61,0.93,2.83,1.42,6.59,1.42s5.98-0.49,6.59-1.42
				c0.16-0.24,0.16-0.49,0.16-0.65l0.16-4.97c0.53-0.04,1.17,0,2.02,0.12c1.86,0.32,3.15,0.12,3.88-0.53
				c0.44-0.4,0.53-0.93,0.53-1.17c0-0.12,0-0.2,0-0.32c0-0.28-0.12-0.57-0.2-0.85c-0.12-0.49-0.24-0.97-0.36-1.42
				c-0.12-0.57-0.28-1.13-0.4-1.7c-0.08-0.36-0.16-0.73-0.28-1.09c0,0,0-0.04,0-0.08c1.86-0.36,4.33-0.61,7.4-0.53h0.69l-0.36-0.53
				c-0.08-0.12-6.92-10.39-9.54-19.13c8.53,5.78,16.26,7.85,23.01,7.85c15.53,0,25.68-11,27.22-12.78
				c0.24-0.24,6.11-6.03,11.24-19.57c4.65-12.33,9.34-33.6,5.18-64.9l5.82,1.25l6.71-9.26c0.32-0.44,0.32-1.05,0-1.54L190.99,74.31z
				 M175.22,61.69l8.73-1.9l-5.26,7.24l-4.41-0.97l0.89-4.41L175.22,61.69z M24.47,67.03l-5.26-7.24l8.73,1.9l0.89,4.41l-4.41,0.97
				L24.47,67.03z M19.73,83l-5.26-7.24l8.73,1.9l0.89,4.41l-4.41,0.97L19.73,83z M159.29,77.02l12.46-8.17
				c0.4,5.7,0.65,11.24,0.65,16.46l-14.19,9.3c0.61-5.34,0.93-11.12,1.05-17.59L159.29,77.02z M145.42,86.12l5.9-3.88
				c-0.28,6.51-0.81,12.46-1.66,18l-4.61,3.03c0.44-5.42,0.57-11.12,0.32-17.15L145.42,86.12z M144.85,105.57l7.36-4.81
				c-0.44,10.11-1.78,20.26-4.93,29.88c-1.58,4.93-3.68,9.71-6.19,14.32c-2.51,4.53-5.46,8.82-8.78,12.82
				c-1.74,2.1-3.56,4.08-5.46,5.98c-1.37-1.33-2.39-2.51-3.03-3.28C133.61,148.27,142.43,130.19,144.85,105.57z M112.58,160.08
				c-0.2-0.32-0.53-0.4-0.77-0.53h-0.12c0,0-0.28-0.2-0.28-0.24c0,0,0.12-0.08,0.16-0.16c0.08-0.04,0.16-0.12,0.28-0.24
				c0.36-0.49,0.36-1.09,0-1.62c-0.53-0.73-1.62-1.13-2.39-0.89c-0.32,0.08-0.65,0.24-0.93,0.4c-0.16,0.08-0.28,0.16-0.44,0.2
				c-0.2,0.08-0.73,0.28-1.05,0c-0.12-0.08-0.2-0.2-0.32-0.32c-0.12-0.16-0.28-0.36-0.49-0.49c-0.32-0.2-0.69-0.24-1.01-0.24
				l-4-0.24c-0.53-0.04-0.85,0.12-1.09,0.57c-0.08,0.08-0.24,0.08-0.53,0.08c-0.24,0-0.49,0-0.73,0.08
				c-0.4,0.12-0.69,0.49-0.89,0.77c-0.12,0.16-0.24,0.36-0.4,0.44c-0.36,0.28-0.93,0.2-1.5,0.12c-0.28,0-0.53-0.08-0.81-0.08
				c-0.73,0-1.82,0.32-2.35,1.01c-0.32,0.4-0.4,0.85-0.28,1.37c0.04,0.08,0.12,0.2,0.16,0.28c0,0.04,0.08,0.12,0.12,0.16
				c0.08,0.2,0,0.44-0.2,0.65c-0.24,0.24-0.61,0.28-1.05,0.32c-0.49,0.04-1.01,0.12-1.42,0.49c-0.12,0.12-0.2,0.28-0.28,0.44
				c-0.08,0.12-0.12,0.24-0.2,0.32c-0.08,0.08-0.16,0.12-0.28,0.16c-0.12,0.04-0.24,0.12-0.36,0.16c-0.77,0.49-0.77,1.42-0.77,2.18
				c0,0.36,0,0.61-0.04,0.85c-6.35-6.07-12.82-14.56-17.95-25.64h5.22c0.12,0.24,0.24,0.44,0.32,0.69c0.73,1.62,1.5,3.28,2.91,4.37
				c0.36,0.4,0.65,0.89,0.93,1.42c0.28,0.49,0.57,1.01,0.93,1.46c0.57,0.65,1.25,1.13,1.9,1.58c1.86,1.29,4,2.71,6.43,3.24
				c0.61,0.12,1.17,0.2,1.78,0.24c0.73,0.08,1.37,0.16,2.06,0.32c0.49,0.12,0.93,0.28,1.42,0.49c0.4,0.16,0.81,0.28,1.21,0.4
				c1.5,0.44,3.07,0.53,4.61,0.57c2.55,0.08,5.22,0.2,7.76-0.49l0.36-0.08c1.25-0.32,2.55-0.69,3.44,0
				c0.32,0.28,0.61,0.69,0.89,1.13c0.44,0.73,0.93,1.5,1.9,1.58c0.24,0,0.28,0,0.28,0.04c0.04,0.04,0.04,0.32,0.04,0.49
				c0,0.12,0,0.28,0,0.44c0.08,0.44,0.4,0.81,0.93,0.97c0.12,0,0.28,0.04,0.4,0.04c0.44,0,0.85-0.2,1.13-0.53
				c0.65-0.81,0.32-1.98-0.4-2.59h-0.04c0,0-0.16-0.16-0.16-0.2c0,0,0-0.12,0.16-0.4c0.97-1.37,2.59-2.31,4.29-2.47
				c0.12,0,0.24,0,0.4,0c0.61,0,1.21-0.08,1.74-0.4l0.49-0.32l-0.53-0.28c-0.36-0.2-0.69-0.4-1.01-0.65
				c1.25-0.69,2.63-0.93,4.12,0.73c-3.84,5.9-8.05,10.72-12.13,14.52c-0.08-0.12-0.12-0.32-0.16-0.57v-0.08c0,0-0.16-0.28-0.24-0.36
				c-0.04-0.08-0.12-0.16-0.12-0.2c-0.04-0.12-0.04-0.24-0.04-0.4c0-0.12,0-0.24,0-0.4c-0.12-0.69-0.69-1.21-1.66-1.54
				c-0.24-0.08-0.32-0.16-0.36-0.16c0.08-0.28,0.24-0.61,0.49-0.93c0.4-0.61,0.85-1.25,0.49-2.1L112.58,160.08z M92.12,76.01
				c-10.92,3.84-19.57,1.17-24.63-1.54c1.05-0.28,2.14-0.61,3.32-0.89c9.95-1.9,17.39-0.28,21.35,1.05c-0.04,0.49-0.08,0.93,0,1.42
				L92.12,76.01z M95.96,76.41c0.61,0.85,1.37,1.54,2.22,1.98l0.44,0.24l0.08-0.49c0.16-0.89,0-1.9-0.28-2.91
				c0.73-0.36,1.46-0.77,2.18-1.21c0.16,0.36,0.32,0.73,0.53,1.09l0.24,0.44l0.32-0.4c0.28-0.36,0.53-0.77,0.69-1.25
				c7.16,4.29,13.67,5.78,19.25,5.78c6.83,0,12.29-2.22,15.81-4.25c0.04,0,0.36-0.2,0.57-0.32c1.42,0.4,2.71,0.73,3.92,1.01
				c0,0.2,0,0.49,0,0.57c1.13,11.65,0.93,22.2-0.2,31.66H61.39c-1.21-9.66-1.46-20.38-0.28-32.23c1.25-0.28,2.59-0.65,4-1.05
				c5.74,3.4,17.02,7.36,30.77,1.29L95.96,76.41z M89.21,51.95L89.21,51.95c0,0-0.08-0.2-0.08-0.32c0.69,0.61,1.5,1.09,2.35,1.29
				l0.49,0.12v-0.49c-0.12-1.01-0.65-2.18-1.5-3.19l0,0c-0.57-0.65-1.46-1.33-2.35-1.74c0.12-0.53,0.16-1.13,0.16-1.78l2.35,1.82
				l0.65,0.93v1.9c0,0,0.24,0.32,0.36,0.44c0.08,0.08,0.12,0.16,0.2,0.28l0.08,0.08c0,0,0.12,0.2,0.12,0.28
				c0,0.73,0.2,1.42,0.65,2.1c-0.08,0.08-0.16,0.2-0.24,0.28c-0.16,0.24-0.36,0.44-0.53,0.65c-0.4,0.44-0.69,0.97-0.89,1.54
				c-0.65-0.49-1.42-1.01-1.7-1.17c0.16-0.93,0.12-1.98-0.08-3.07L89.21,51.95z M90.1,25.74c0,0.44-0.08,0.89-0.16,1.37
				c-0.12,0.73-0.4,1.5-0.73,2.18c-0.57,1.09-1.37,1.98-2.14,2.47c0-1.74,0.65-3.48,1.78-4.77c0.4-0.49,0.85-0.89,1.29-1.25
				L90.1,25.74z M89.57,24.49c-1.37-0.16-2.51,0.2-3.44,1.13c0,0,0,0-0.04,0c0-0.36,0.08-0.65,0.2-0.93
				c0.12-0.24,0.24-0.44,0.4-0.65c0.32-0.4,0.73-0.77,1.21-1.05c0.28-0.16,0.61-0.2,0.89-0.2c0.28,0,0.53,0.04,0.77,0.12
				c0.28,0.08,0.44,0.28,0.53,0.61c0.04,0.28,0,0.44-0.16,0.93c0,0,0,0-0.04,0c-0.08,0-0.2,0-0.28,0L89.57,24.49z M87.51,36.94
				L87.51,36.94c0-0.28,0-0.57,0-0.85c0.61,0.81,1.42,1.5,2.35,1.86l0.44,0.2v-0.49c0.08-1.01-0.28-2.26-0.97-3.36l0,0
				c-0.44-0.69-1.17-1.46-1.98-1.98c0.93-0.57,1.78-1.54,2.43-2.75l0,0c0.36-0.69,0.61-1.46,0.77-2.18
				c0.24,0.81,0.61,1.62,0.97,2.18c0.65,1.05,1.58,1.94,2.63,2.55c-1.17,2.06-1.25,4.53-0.24,6.47l0.24,0.44l0.32-0.36
				c0.61-0.69,1.01-1.74,1.17-2.91c0.65,1.29,1.58,2.39,2.71,3.11c-0.4,0.32-0.77,0.77-1.09,1.21c-1.01,1.33-1.46,3.11-1.21,4.77
				l0.08,0.49l0.44-0.24c0.85-0.44,1.62-1.33,2.14-2.51c0.24,1.46,0.85,2.75,1.74,3.8c-0.85,0.57-1.62,1.29-2.14,2.18
				c-0.61,0.97-0.93,2.18-0.93,3.36v0.49l0.44-0.16c0.77-0.28,1.58-0.93,2.22-1.78c-0.08,1.5,0.24,2.95,0.89,4.21
				c-0.44,0.2-0.85,0.4-1.29,0.73c-1.37,0.93-2.35,2.51-2.59,4.12l-0.08,0.49l0.49-0.08c0.85-0.12,1.74-0.61,2.55-1.37
				c-0.36,1.74-0.16,3.6,0.53,5.1c-0.53,0.61-0.97,1.25-1.33,2.06c-0.73,1.5-0.97,3.19-0.77,4.81c-1.01-0.89-2.31-1.9-3.84-2.91
				c-0.12-0.4-0.24-0.81-0.36-1.09l0,0c0,0-0.16-0.32-0.28-0.49c0.61,0.24,1.25,0.36,1.86,0.36c0.16,0,0.32,0,0.49,0h0.44
				l-0.16-0.49c-0.36-0.93-1.25-1.9-2.31-2.55l0,0c0,0-0.16-0.08-0.24-0.12c-0.04-0.73-0.24-1.46-1.09-1.58
				c-0.32,0-0.61,0-0.93,0.08c-0.08,0-0.12,0-0.16,0c-0.04,0-0.08-0.08-0.08-0.12c-0.2-0.61-0.32-1.21-0.36-1.82
				c0.49,0.36,0.97,0.65,1.54,0.81l0.44,0.12v-0.49c0-1.01-0.49-2.22-1.25-3.24l0,0c0,0-0.24-0.24-0.44-0.4
				c0.08-0.2,0.16-0.36,0.24-0.53c0.44-0.73,0.89-1.42,1.46-2.06c0.08-0.08,0.2-0.2,0.32-0.2c-0.53-0.32-0.89-0.73-1.01-1.37
				c-0.08-0.49-0.12-1.05,0-1.54c0-0.08,0.04-0.16,0.12-0.2c-0.36-0.08-0.61-0.44-0.73-0.81C92,49.6,91.96,49.12,92,48.75v-0.16
				l-1.42-2.14c0,0-1.46,0-2.31-1.29c0,0,0-0.04-0.04-0.08c0-0.24-0.04-0.49-0.08-0.73c0.57,0.49,1.21,0.85,1.9,1.05l0.44,0.12
				v-0.49c-0.04-1.01-0.53-2.22-1.33-3.24l0,0c-0.65-0.81-1.5-1.46-2.43-1.9c0.44-0.85,0.73-1.94,0.81-3.07L87.51,36.94z
				 M86.9,32.86c0.73,0.44,1.42,1.21,1.82,1.82c0.49,0.77,0.81,1.66,0.89,2.39c-0.69-0.4-1.29-0.97-1.74-1.66
				c-0.28-0.4-0.49-0.89-0.65-1.37c-0.08-0.24-0.12-0.49-0.2-0.73c0-0.16-0.08-0.28-0.08-0.44H86.9z M90.91,25.78
				c0.97,0.61,1.86,1.5,2.47,2.47c0.65,1.05,1.01,2.26,1.05,3.28c-0.93-0.53-1.74-1.33-2.31-2.26c-0.65-1.13-1.09-2.39-1.17-3.48
				H90.91z M94.63,32.7c0.28,0.77,0.4,1.74,0.36,2.67c-0.08,0.93-0.32,1.78-0.73,2.43C93.66,36.22,93.78,34.31,94.63,32.7z
				 M95.44,32.49c0.93,0.65,1.78,1.58,2.35,2.59c0.49,0.93,0.81,1.9,0.89,2.79v0.4c-1.86-0.97-3.03-3.32-3.24-5.74V32.49z
				 M98.63,39.57c0,0,0,0.2,0,0.32c0,0.16,0,0.32,0,0.49c-0.08,0.65-0.24,1.29-0.49,1.86c-0.36,0.81-0.89,1.54-1.46,1.98
				c-0.04-1.29,0.36-2.67,1.13-3.72C98.06,40.18,98.35,39.85,98.63,39.57z M102.23,51.14c0,1.21-0.2,2.39-0.65,3.24h-0.12
				c-0.73-1.5-1.01-3.28-0.65-4.97c0.12-0.57,0.28-1.25,0.53-1.82c0.53,1.09,0.85,2.31,0.89,3.52L102.23,51.14z M101.87,46
				c0.69,0.49,1.29,1.17,1.74,1.94c0.44,0.81,0.69,1.7,0.73,2.47c-1.01-0.65-1.82-1.78-2.18-3.07
				C102.03,46.93,101.91,46.45,101.87,46z M100.09,69.82c-0.24,0.53-0.57,1.01-0.89,1.37c-0.4-1.66-0.2-3.52,0.57-5.1
				c0.28-0.61,0.61-1.09,0.97-1.58c0.08,0.44,0.12,0.89,0.16,1.33c0,0.4,0,0.85,0,1.29c-0.24,0.57-0.44,1.13-0.61,1.82
				c-0.08,0.28-0.12,0.57-0.16,0.85L100.09,69.82z M100.09,72.17c0,0-0.04,0-0.08,0.04c-0.12-0.12-0.28-0.28-0.44-0.44
				c0.16-0.16,0.28-0.32,0.44-0.49C100,71.6,100.05,71.88,100.09,72.17z M94.99,71.48c0.93,0.69,1.74,1.66,2.26,2.67
				c0.57,1.13,0.85,2.35,0.81,3.36c-1.33-0.89-2.35-2.39-2.75-4.12c-0.12-0.61-0.28-1.29-0.32-1.94V71.48z M95.07,74.83
				c0,0-0.12,0.04-0.16,0.08c-0.12-0.04-0.24-0.12-0.36-0.16c0.08-0.16,0.12-0.32,0.16-0.49l0,0c0,0,0.04-0.2,0.08-0.28
				c0.08,0.28,0.2,0.57,0.32,0.85L95.07,74.83z M97.66,73.5c-0.65-1.13-1.62-2.14-2.67-2.87c0-0.44-0.08-1.21-0.24-1.98
				c1.62,1.09,2.91,2.22,3.84,3.11c0,0.04,0,0.12,0.04,0.16l0.16,0.49l0.24-0.2c0,0,0.2,0.2,0.28,0.32c0,0-0.04,0-0.08,0.04
				c-0.36,0.2-0.73,0.4-1.09,0.61c-0.16,0.08-0.36,0.2-0.53,0.32L97.66,73.5z M100.73,70.06c0.24-0.53,0.44-1.09,0.61-1.66l0,0
				c0.08-0.32,0.12-0.65,0.16-0.97c0.16,0.4,0.32,0.81,0.44,1.25c0.2,0.73,0.32,1.54,0.32,2.31c0,1.25-0.32,2.43-0.81,3.28
				c-0.61-1.25-0.85-2.75-0.69-4.21H100.73z M101.46,64.24c0.61,0.61,1.09,1.33,1.46,2.14c0.32,0.85,0.49,1.66,0.44,2.39
				c-1.17-1.09-1.9-2.79-1.86-4.53H101.46z M100.89,63.03c-0.61-1.58-0.65-3.48-0.08-5.14c0.2-0.61,0.44-1.17,0.77-1.7
				c0.12,0.4,0.24,0.85,0.32,1.29c0.12,0.73,0.16,1.54,0.08,2.31c-0.16,1.25-0.57,2.39-1.09,3.19V63.03z M99.76,57.85
				c-0.61,0.65-1.29,1.17-1.98,1.37c0.32-1.25,1.13-2.43,2.18-3.15c0.36-0.24,0.73-0.44,1.09-0.61c-0.08,0.2-0.16,0.44-0.28,0.69
				l-0.08,0.2c-0.24,0.53-0.57,1.05-0.97,1.5L99.76,57.85z M99.68,40.3c0.16,0.2,0.32,0.4,0.53,0.61c0.32,0.61,0.61,1.25,0.77,1.86
				c0.2,0.81,0.24,1.62,0.2,2.35v0.28c0,0-0.04,0.16-0.04,0.24c0,0.16-0.04,0.32-0.08,0.49h-0.08c-1.05-1.17-1.7-2.87-1.78-4.61
				c0-0.36,0-0.73,0-1.09c0-0.16,0.04-0.36,0.04-0.53c0,0,0-0.04,0-0.08c0.12,0.16,0.24,0.36,0.36,0.53L99.68,40.3z M99.52,38.76
				c0.81,0.2,1.62,0.57,2.26,1.09c0.69,0.57,1.25,1.29,1.58,2.02c-0.93-0.16-1.82-0.65-2.55-1.33c-0.36-0.65-0.81-1.21-1.29-1.74
				V38.76z M100.61,47.21c-0.08,0.81-0.4,1.74-0.89,2.59c-0.49,0.77-1.09,1.37-1.7,1.74c0.08-0.85,0.36-1.7,0.81-2.43
				C99.28,48.39,99.92,47.74,100.61,47.21z M93.86,64.12c0.77,0.49,1.42,1.09,1.82,1.74c-0.77,0-1.58-0.24-2.26-0.65
				c-0.2-0.12-0.36-0.24-0.53-0.36c-0.44-0.24-1.09-1.01-1.05-0.97c-0.12-0.16-0.28-0.32-0.36-0.49c0.85,0.04,1.7,0.32,2.43,0.73
				H93.86z M92,62.86c0,0,0-0.08,0.04-0.08c0.12-0.2,0.28-0.32,0.44-0.4c0.08-0.04,0.2-0.08,0.28-0.08s0.16,0,0.24,0.08
				c0.08,0,0.12,0.08,0.16,0.16c0,0.08,0.08,0.12,0.08,0.2s0,0.2,0,0.28c0,0.04,0,0.12,0,0.16c-0.4-0.12-0.89-0.24-1.33-0.32
				L92,62.86z M88.56,42.44c0.57,0.73,0.97,1.58,1.09,2.31c-0.77-0.32-1.46-0.93-2.02-1.66c-0.24-0.65-0.57-1.29-0.93-1.86
				c-0.04-0.16-0.12-0.28-0.16-0.44c0.77,0.36,1.46,0.93,2.02,1.62V42.44z M87.83,48.39c0.81,0.32,1.58,0.97,2.06,1.5
				c0.61,0.69,1.01,1.5,1.21,2.26c-0.73-0.28-1.42-0.77-1.94-1.37c-0.57-0.65-1.01-1.46-1.29-2.35l0,0L87.83,48.39z M91.47,57.57
				c0.57,0.73,0.93,1.58,1.05,2.31c-1.09-0.49-2.02-1.46-2.55-2.67c-0.16-0.4-0.36-0.85-0.44-1.29c0.77,0.4,1.46,0.97,1.98,1.62
				L91.47,57.57z M91.35,64.4c0.28,0.32,0.61,0.65,0.97,0.93c0.44,0.53,0.85,1.05,1.17,1.66c0.57,1.13,0.85,2.35,0.81,3.36
				c-1.33-0.89-2.35-2.39-2.75-4.12c0-0.16-0.08-0.32-0.12-0.53c0-0.36-0.08-0.77-0.16-1.13c0-0.08,0-0.2,0-0.28
				c0,0,0.08,0.08,0.12,0.08L91.35,64.4z M93.98,74.11c-0.28,0.85-0.69,1.58-1.17,2.1c-0.12-0.81-0.04-1.62,0.2-2.39
				c0.28-0.89,0.73-1.7,1.21-2.26C94.3,72.41,94.22,73.3,93.98,74.11z M109.22,75.36c3.07-1.29,11.4-4.04,23.25-1.74
				c1.05,0.28,2.06,0.57,3.03,0.85c-6.23,3.28-15.25,5.46-26.29,0.93L109.22,75.36z M141.54,110.26
				c-1.5,10.92-4.29,20.42-7.85,28.55h-31.18v-0.85l2.1-4.49l-2.02-6.07c1.05,0.16,2.14,0.49,3.19,1.09
				c0.2,0.89,1.21,4.57,2.91,5.14c0.61,0.2,1.33,0.28,2.1,0.28c1.46,0,2.95-0.32,3.56-0.73l0.4-0.24l-0.36-0.28
				c0,0-1.25-0.89-2.47-2.14c-1.62-1.66-1.58-4.81-1.5-6.47c0-0.12,0-0.32,0.04-0.57c0.24-2.35,0.93-9.5-5.14-10.68
				c-1.29-0.24-2.63-0.24-3.92,0c-1.13,0.2-2.26,0.57-3.28,1.09c-0.85,0.4-1.7,0.93-2.47,1.5c-0.44,0.32-0.97,0.65-1.33,1.05
				c-0.49,0.49-0.57,1.01-0.65,1.7c-0.08,0.61-0.16,1.17-0.12,1.78c0,0.32,0,0.73,0.2,1.01c0.44,0.61,0.85,0.44,1.17,0.32
				c0.08,0,0.12-0.04,0.2-0.08c0.12,0.89-0.32,4.33-0.81,7.4l-0.12,0.73l0.65-0.36c0,0,2.06-1.21,4.81-1.58l-2.02,6.07l2.18,4.49
				v0.85H69.64c-3.56-8.13-6.39-17.63-7.93-28.55h79.87L141.54,110.26z M121.48,151.83c0.28,0.28,0.57,0.49,0.89,0.73
				c-0.24,0.04-0.53,0.08-0.81,0.08c-0.12,0-0.28,0-0.4,0c-1.9,0.16-3.68,1.21-4.77,2.75c-0.12,0.16-0.4,0.57-0.24,1.05
				c0.08,0.2,0.24,0.32,0.36,0.44h0.04c0.44,0.44,0.69,1.21,0.28,1.7c-0.2,0.24-0.57,0.28-0.81,0.2c-0.12,0-0.36-0.12-0.4-0.36
				c0-0.12,0-0.24,0-0.36c0-0.36,0-0.73-0.28-0.97c-0.2-0.16-0.44-0.24-0.77-0.24c-0.61-0.04-0.93-0.61-1.33-1.25
				c-0.28-0.49-0.61-0.97-1.01-1.29c-1.17-0.93-2.71-0.49-4.04-0.12l-0.36,0.08c-2.47,0.65-5.05,0.57-7.56,0.44
				c-1.5-0.04-2.99-0.12-4.45-0.53c-0.4-0.12-0.77-0.24-1.17-0.4c-0.49-0.16-0.97-0.36-1.5-0.49c-0.73-0.2-1.46-0.28-2.14-0.32
				c-0.57-0.08-1.13-0.12-1.7-0.24c-2.31-0.49-4.37-1.9-6.19-3.11c-0.65-0.44-1.29-0.89-1.78-1.46c-0.32-0.4-0.61-0.85-0.85-1.33
				c-0.28-0.53-0.61-1.09-1.05-1.58c-1.33-1.05-2.02-2.59-2.79-4.17c-0.08-0.12-0.12-0.28-0.2-0.4h56.45
				c-1.86,4.04-3.92,7.76-6.07,11.12c-1.98-2.1-3.92-1.33-5.26-0.49l-0.36,0.24l0.32,0.32L121.48,151.83z M98.39,133.43l2.02-6.11
				c0.49,0,0.93,0,1.46,0l2.02,6.11l-2.02,4.29v1.05h-1.33v-1.01l-2.14-4.37V133.43z M107.49,119.48c-0.73-1.62-2.1-3.03-3.84-3.32
				c-1.46-0.24-2.87,0.32-4.17,1.05c-1.05,0.61-2.06,1.29-2.95,2.1c-0.4,0.36-0.81,0.77-1.29,1.05c-0.16,0.12-0.49,0.36-0.69,0.36
				c-0.24,0-0.32-0.32-0.32-0.49c0-0.73,0.04-1.46,0.16-2.18c0-0.2,0.08-0.44,0.16-0.65c0.12-0.24,0.36-0.49,0.57-0.65
				c2.35-2.02,5.38-3.44,8.49-3.44c1.25,0,2.55,0.24,3.6,0.93c1.5,0.97,2.31,2.71,2.59,4.49c0.28,1.74,0.12,3.52,0.04,5.3
				c-0.08,1.78,0,3.6,0.65,5.26c0.61,1.5,1.7,2.75,3.11,3.52c-1.21,0.4-2.51,0.57-3.76,0.4c-0.4-0.04-0.85-0.12-1.17-0.36
				c-0.4-0.24-0.65-0.69-0.89-1.09c-0.53-0.97-0.93-1.98-1.17-3.07c-0.04-0.2-0.08-0.44-0.24-0.61c-0.08-0.12-0.24-0.2-0.36-0.28
				c-1.66-0.89-3.56-1.25-5.46-1.17c-1.86,0.08-3.72,0.65-5.42,1.42c0.4-2.22,0.65-4.49,0.69-6.75c0-0.12,0-0.24,0-0.36
				c0,0,0-0.04,0-0.08c0.04-0.12,0.16-0.24,0.28-0.32c1.29-1.21,2.75-2.31,4.33-3.07c1.17-0.57,2.55-0.97,3.76-0.49
				c0.69,0.24,1.29,0.77,1.74,1.37c1.37,1.78,1.62,4.12,1.86,6.31c0.2,0,0.44,0,0.65,0c-0.16-1.74-0.32-3.56-1.01-5.18
				L107.49,119.48z M149.95,58.62c0.97-0.85,1.94-1.7,3.32-1.86c1.13-0.12,2.47,0.12,4.04,0.73c2.95,1.21,4.04,0.85,5.01,0.53
				l0.2-0.08c0.65-0.24,1.66-0.89,2.39-1.37l-0.97,2.91l3.96,0.36c-0.65,0.61-1.98,1.58-4.21,2.35c-3.03,0.85-5.38-0.28-7.44-1.25
				c-0.61-0.28-1.17-0.57-1.7-0.77c-2.1-0.77-4.45-0.65-6.35,0.32c0.49-0.69,1.17-1.29,1.82-1.86H149.95z M147.6,61.61
				c1.17-0.85,2.63-1.25,4.12-1.25c0.44,2.1,2.1,3.56,2.99,4.25c-0.69,0.65-2.35,1.74-5.9,1.9
				C148.41,65.94,146.99,63.83,147.6,61.61z M125.6,63.39L125.6,63.39c3.44,0,7,0.57,10.59,1.7l0,0c11.73,3.6,16.98,1.7,18.68,0.28
				c-0.4,2.39-1.66,7.89-4.69,9.83c-2.83,1.82-7.16,0.61-13.22-1.09c-1.37-0.36-2.79-0.77-4.33-1.17
				c-12.86-2.47-21.68,0.85-24.26,2.06c-0.53-0.24-1.05-0.49-1.62-0.77c-0.12-0.08-0.2-0.12-0.32-0.2
				c-0.44-0.28-0.89-0.53-1.33-0.77c-0.36-0.2-0.73-0.4-1.09-0.61c0,0-0.04,0-0.08-0.04C106.64,69.74,113.96,63.39,125.6,63.39z
				 M112.1,64.6c0,0,0.12,0.24,0.2,0.32c0.08,0.16,0.2,0.32,0.2,0.49c0,0.4-0.49,0.53-0.77,0.4c-0.53-0.2-1.09-0.65-1.5-1.05
				c-0.53-0.49-1.82-2.26-0.69-2.79c0.61-0.28,1.17,0.36,1.5,0.81c0.4,0.57,0.73,1.17,1.09,1.78L112.1,64.6z M112.22,28.94
				c1.17-1.86,0.53-4.49-0.08-6.27l-0.08-0.32c-1.42-4.77-2.22-8.57,1.42-10.47c1.98-1.01,4.57-1.42,7.97-1.25
				c8.21,0.4,16.58,3.44,24.87,8.98c9.71,6.51,18.6,13.3,27.13,20.79c1.29,1.13,2.63,2.22,3.88,3.32c3.36,2.79,6.83,5.7,9.75,8.94
				c0.81,0.93,1.62,1.78,1.98,2.83c-0.77-0.32-1.5-0.81-2.26-1.33c-0.57-0.36-1.13-0.77-1.7-1.09c-1.09-0.65-1.7-1.05-2.63-1.98
				c-0.4-0.36-1.01-0.32-1.42,0c-0.4,0.36-0.49,0.93-0.16,1.42c0.2,0.28,0.32,0.44,0.4,0.61c-0.2-0.12-0.44-0.24-0.65-0.4h-0.04
				c-0.65-0.44-1.29-1.01-1.94-1.54c-0.53-0.44-1.05-0.89-1.58-1.25l-3.28-2.31l1.94,3.52c0.12,0.24,0.24,0.53,0.36,0.81l0,0
				c-1.09-0.81-2.26-1.33-3.4-1.86l-0.44-0.2c-0.4-0.2-0.85-0.16-1.21,0.08c-0.28,0.2-0.44,0.53-0.49,0.89
				c-0.85-0.49-1.62-1.09-2.43-1.74c-0.2-0.16-0.44-0.36-0.65-0.53l-0.81-0.65l-0.53,0.89c0,0-0.08,0.16-0.16,0.28l0,0
				c-0.85-0.28-1.46-0.77-2.1-1.37c-0.32-0.28-0.69-0.57-1.05-0.85c-0.36-0.24-0.81-0.28-1.21-0.12c-0.4,0.2-0.65,0.57-0.65,1.01
				v0.08c0,0.24,0,0.65-0.04,0.89c0,0-0.04,0-0.08,0c-1.33-0.53-2.47-1.33-3.68-2.22c-0.65-0.49-1.33-0.97-2.06-1.42l-0.77-0.49
				l-0.49,0.77c0,0-0.12,0.24-0.16,0.36c-1.54-0.57-2.95-1.58-4.33-2.55l-0.32-0.24c0,0-0.81-0.61-1.42-0.2
				c-0.2,0.12-0.49,0.4-0.44,0.93c-0.44-0.16-1.21-0.61-2.63-1.62c-0.24-0.16-0.4-0.28-0.49-0.32c-0.61-0.44-1.09-0.32-1.5-0.2
				c0,0-0.04,0-0.08,0c-0.08,0-0.28-0.08-0.36-0.16c-0.77-0.36-1.54-0.81-2.22-1.29c-0.04-0.04-0.12-0.12-0.2-0.2
				c-0.49-0.4-1.13-0.97-1.9-0.81c-0.36,0.08-0.65,0.28-0.85,0.61c-0.44-0.16-0.81-0.16-1.13,0.08c-0.53,0.36-0.53,0.97-0.49,1.21
				c0,0.65-0.12,1.29-0.49,2.06c-0.12,0.24-0.2,0.32-0.2,0.32s-0.16,0-0.4-0.2c0,0-0.04,0-0.08-0.04c-0.16-0.16-0.57-0.49-1.09-0.4
				c-0.24,0-0.57,0.16-0.81,0.57c-0.16,0.24-0.28,0.28-0.28,0.32c0,0-0.12-0.08-0.32-0.28l-0.12-0.12c-0.32-0.44-0.77-1.01-1.5-1.33
				c0-0.04-0.08-0.12-0.12-0.2l-0.12-0.16c-0.2-0.32-0.61-0.53-1.01-0.49c-0.4,0-0.77,0.28-0.93,0.65v0.08
				c-0.2-0.2-0.53-0.44-0.93-0.49c-0.32,0-0.61,0.08-0.77,0.2c-0.57-0.32-1.21-0.4-1.9-0.2c-0.32-0.08-0.61,0-0.77,0.08
				c-0.53,0.24-0.65,0.77-0.73,0.93c-0.04,0.2-0.16,0.61-0.28,0.69c-0.73,0.36-1.01,0.97-1.17,1.33v0.08
				c-0.16,0.2-0.24,0.36-0.28,0.49c-0.24-0.2-0.61-0.28-0.93-0.2c-0.36,0.08-0.65,0.32-0.81,0.65c-0.24,0.61-0.81,1.01-1.42,1.46
				l0,0c0,0-0.04-0.28-0.08-0.44c-0.04-0.24-0.08-0.57-0.2-0.85l-0.85-2.35l-0.93,2.59c0,0-0.08,0.28-0.16,0.44
				c-0.24,0.69-1.05,1.29-1.58,1.29c-0.12,0-0.32,0-0.49-0.61c0-0.04,0-0.08,0-0.16c0-0.24-0.08-0.69-0.4-1.09l-0.77,0.61
				c-0.24-1.09-1.01-2.22-1.13-2.51c-0.2-0.49-0.08-1.37,0.49-2.43s-0.89-3.6-0.89-3.6c1.98-2.39,0.89-5.46-0.08-7.28
				c0.69-0.32,1.21-0.77,1.58-1.37L112.22,28.94z M108.42,29.7c0,0,0.36,0.36,0.89,0.44c0,0,0.04,0.04,0.08,0.08
				c0.81,0.97,1.21,1.94,1.54,3.15c0.16,0.65,0.24,1.33,0.08,1.98c-0.12,0.49-0.4,1.01-0.77,1.33c-0.24,0.24-0.44,0.49-0.73,0.73
				c0,0-0.12,0.08-0.2,0.12c-0.57,0.28-1.58,0.69-3.24,0.89c0,0-1.17,0.85,3.52-0.16c0.24,0.28,0.49,0.61,0.73,0.97
				c0.28,0.44,0.4,0.69,0.28,1.21c0,0.4-0.28,0.89-0.4,1.25c-0.16,0.4-0.28,0.85-0.24,1.29c0.08,1.09,1.13,1.74,1.37,2.75
				c0.16,0.57,0,1.17-0.36,1.58c-0.12,0.16-0.53,0.36-0.61,0.53c-0.04,0.16,0.12,0.44,0.16,0.65c0.04,0.36,0,0.81-0.08,1.17
				c-0.12,0.36-0.36,0.69-0.73,0.81c0.08,0,0.12,0.12,0.12,0.2c0.12,0.49,0.08,1.05,0,1.54c-0.12,0.65-0.49,1.05-1.01,1.37
				c0.12,0,0.24,0.08,0.32,0.2c0.53,0.65,1.01,1.33,1.46,2.06c0.49,0.77,0.57,1.86,0.61,2.75c0,0.93-0.12,1.9-0.4,2.79
				c0,0.04,0,0.12-0.08,0.12c-0.04,0-0.12,0-0.16,0c-0.32-0.04-0.61-0.12-0.93-0.08c-1.01,0.12-1.13,1.13-1.13,1.98l-1.46-1.62l0,0
				c0,0-0.85,2.83-3.56,3.24c0,0,2.35,0.4,4.17-2.06c0.12,0.2,0.24,0.4,0.36,0.61c0.32,0.53,0.77,1.05,1.25,1.5
				c0.44,0.44,0.97,0.93,1.54,1.25c0.04,0,0.12,0.04,0.16,0.08c-3.76,2.06-6.35,4.49-7.68,5.9c-0.12-0.08-0.28-0.16-0.4-0.24
				c0.04-0.32,0.08-0.69,0.08-1.01l0,0c0-0.65-0.08-1.25-0.2-1.86c0.2,0.2,0.4,0.4,0.65,0.57l0.4,0.28l0.12-0.49
				c0.24-0.93,0.12-2.18-0.36-3.36l0,0c-0.44-1.05-1.17-2.06-2.02-2.75c0.61-0.89,1.01-2.1,1.17-3.44l0,0
				c0.04-0.53,0.04-1.05,0-1.54c0.69,0.93,1.62,1.62,2.63,1.98l0.44,0.16v-0.49c0-1.01-0.44-2.22-1.21-3.28l0,0
				c-0.61-0.85-1.5-1.54-2.39-1.98c0.49-0.97,0.73-2.22,0.69-3.56l0,0c0-0.4-0.04-0.77-0.12-1.17c0.49,0.57,1.05,1.01,1.7,1.33
				l0.44,0.2v-0.49c0.2-1.01-0.08-2.26-0.73-3.4l0,0c-0.53-0.97-1.37-1.82-2.31-2.39c0.08-0.85,0-1.78-0.24-2.71l0,0
				c-0.08-0.28-0.16-0.53-0.28-0.81c0.77,0.44,1.62,0.73,2.47,0.81h0.49l-0.12-0.44c-0.24-1.01-0.97-2.02-1.98-2.87l0,0
				c-0.81-0.65-1.82-1.09-2.79-1.29c-0.08-1.05-0.4-2.18-1.01-3.24l0,0c-0.73-1.29-1.86-2.43-3.11-3.15l-0.16-0.08
				c-0.04-1.13-0.44-2.43-1.13-3.6l0,0c-0.36-0.61-0.81-1.13-1.33-1.62c0.16,0.04,0.32,0.12,0.4,0.12c0.4,0.12,1.33,1.09,1.7,1.42
				c0.12,0.12,0.4,0.2,0.65,0.28l0.08,1.42c0,0,0.81-1.33,1.66-1.42c0,0,2.02,0.85,2.26,2.91c0.12,1.05,0.16,2.35,0.36,3.4
				c0.04,0.2,0.08,0.4,0.24,0.53c0.16,0.16,0.36,0.2,0.57,0.24c1.25,0.2,2.63,0.08,3.76-0.57c0.53-0.32,1.13-0.77,1.17-1.46
				c0.04-0.85-0.2-1.66-0.49-2.43c-0.2-0.49-0.4-0.97-0.69-1.46c-0.12-0.24-0.28-0.44-0.44-0.69c-0.2-0.24-0.44-0.4-0.65-0.65
				c-0.04-0.04-0.08-0.12-0.12-0.16c1.01-0.08,3.68-0.08,5.26,1.82L108.42,29.7z M102.15,55.46c0.73,0.4,1.46,1.01,1.94,1.7
				c0.53,0.77,0.89,1.58,1.01,2.35c-1.09-0.53-2.02-1.54-2.55-2.75c-0.16-0.4-0.32-0.85-0.44-1.29H102.15z M100.05,24.41v0.2
				c0,0.24,0,0.49-0.08,0.73c-0.16,0.69,0.2,1.13,0.61,1.5c0.08,0.08,0.2,0.16,0.32,0.2c0.04,0,0.08,0.04,0.12,0.08
				c1.09,0.77,1.94,1.7,2.63,2.83c0.44,0.77,1.01,1.74,1.17,2.63c0.16,0.77-0.49,1.46-1.13,1.78c-0.85,0.44-1.9,0.57-2.87,0.32
				c-0.08,0-0.2-0.04-0.28-0.12c-0.12-0.12-0.12-0.32-0.12-0.53c0-0.4,0-0.81,0-1.21l-0.04-0.57c0-0.08,0-0.16,0-0.24v-0.08
				c-0.08-1.86-0.93-3.36-2.63-4.57c-0.32-0.24-0.73-0.49-1.29-0.28c-0.12,0-0.24,0.04-0.4,0.08c-0.08,0-0.12,0-0.16,0
				c-0.28,0-0.49,0-0.65-0.2c-1.17-1.05-2.47-1.78-3.88-2.06c0,0,0,0-0.04,0c0.12-0.73,0.12-1.33-0.08-2.02
				c0.2-0.12,0.4-0.2,0.61-0.32c0.2-0.12,0.4-0.32,0.61-0.49c0.32-0.28,0.69-0.61,1.13-0.61c0.2,0,0.4,0,0.57,0.08
				c0.16,0.04,0.32,0.04,0.49,0.08c0.4,0.04,0.81,0.08,1.17-0.08c0.24-0.08,0.49-0.24,0.73-0.2c0.2,0.04,0.36,0.2,0.53,0.32
				c0.16,0.12,0.36,0.16,0.57,0.2c0.32,0.08,0.61,0,0.85-0.12c0.08,0,0.12-0.04,0.2-0.08c1.09,0.61,1.58,1.5,1.54,2.75L100.05,24.41
				z M94.87,19.68c0.77,0.32,1.58,0,1.58,0h0.12c0.53-0.28,0.89-0.4,1.25-0.4c0.36,0,0.73,0.08,0.93,0.28
				c0.16,0.16,0.28,0.36,0.32,0.49c0,0.08,0.12,0.32,0,0.57c-0.04,0.08-0.12,0.16-0.2,0.24c-0.32,0.32-0.85,0.36-1.25,0.16
				c-0.32-0.16-0.57-0.49-0.89-0.57c-0.36-0.08-0.57,0.2-0.89,0.32c-0.49,0.24-1.09-0.04-1.62-0.12c-1.05-0.12-1.78,0.53-2.47,1.25
				c-0.24,0.28-0.61,0.61-1.01,0.49c-0.16,0-0.28-0.16-0.4-0.28c-0.2-0.16-0.4-0.24-0.61-0.24c-0.4-0.04-0.85,0-1.25-0.12
				c-0.65-0.24-0.57-0.97-0.2-1.46c0.49-0.61,1.7-0.2,2.22,0.16c0.12,0.08,0.24,0.16,0.36,0.16c0.16,0,0.28-0.04,0.4-0.16l0.24-0.2
				c1.62-2.39,2.63-0.93,3.4-0.61L94.87,19.68z M82.98,44.14c-0.24,0.08-0.44,0.28-0.65,0.57c-0.04-0.08-0.12-0.2-0.2-0.36v-0.12
				c-0.2-0.4-0.49-1.01-1.21-1.33c-0.08-0.08-0.2-0.49-0.28-0.69c-0.04-0.16-0.2-0.69-0.69-0.93c-0.16-0.08-0.44-0.16-0.77-0.08
				c-0.65-0.2-1.29-0.16-1.9,0.2c-0.2-0.12-0.44-0.24-0.77-0.2c-0.4,0-0.69,0.28-0.89,0.49v-0.08c-0.2-0.36-0.57-0.61-0.97-0.65
				c-0.4,0-0.81,0.16-1.01,0.49l-0.12,0.16c0,0-0.08,0.16-0.12,0.2c-0.77,0.32-1.17,0.85-1.5,1.33l-0.12,0.12
				c-0.16,0.24-0.28,0.28-0.28,0.28s-0.16-0.08-0.32-0.32c-0.08-0.12-0.36-0.53-0.89-0.57c-0.24,0-0.57,0-0.93,0.36
				c-0.28,0.28-0.44,0.32-0.49,0.32c-0.28-0.12-0.77-1.29-0.73-2.39c0-0.24,0-0.85-0.49-1.21c-0.32-0.2-0.69-0.24-1.13-0.08
				c-0.2-0.32-0.49-0.53-0.85-0.61c-0.77-0.16-1.42,0.4-1.9,0.81c-0.08,0.08-0.16,0.16-0.2,0.16l-0.44,0.28
				c-0.77,0.49-1.46,0.93-2.22,1.17c0,0,0,0-0.04,0c-0.4-0.16-0.89-0.24-1.46,0.16c-0.12,0.08-0.32,0.2-0.57,0.4
				c-0.85,0.61-1.54,1.05-2.06,1.33c-0.24,0.12-0.53,0-0.61-0.2s-0.2-0.36-0.44-0.49c-0.61-0.36-1.21,0.12-1.42,0.28l-0.28,0.2
				c-1.37,0.97-2.79,1.98-4.33,2.55c0-0.12-0.08-0.24-0.16-0.36l-0.49-0.77l-0.77,0.49c-0.73,0.44-1.37,0.93-2.06,1.42
				c-1.21,0.89-2.39,1.7-3.76,2.26l0,0c-0.04-0.24-0.04-0.69-0.04-0.89v-0.08c0-0.44-0.24-0.81-0.65-1.01
				c-0.4-0.2-0.85-0.16-1.17,0.12c-0.4,0.28-0.73,0.57-1.05,0.85c-0.69,0.61-1.29,1.09-2.14,1.37c0-0.04-0.04-0.08-0.08-0.16
				c-0.08-0.2-0.16-0.4-0.24-0.61c-0.12-0.28-0.44-0.36-0.65-0.16c-0.16,0.12-0.32,0.28-0.49,0.36c-0.36,0.28-0.77,0.57-1.13,0.85
				c-0.69,0.53-1.33,1.01-2.02,1.42c0-0.36-0.2-0.65-0.49-0.89c-0.36-0.24-0.81-0.28-1.21-0.08l-0.44,0.2
				c-1.13,0.53-2.31,1.05-3.4,1.86l0,0c0.08-0.24,0.2-0.53,0.32-0.77c0,0,0-0.04,0-0.08c0.12-0.44,0.32-0.85,0.36-1.29
				c0.12-0.65-0.57-0.61-0.97-0.36l-0.77,0.49l0,0c-0.16,0.12-0.4,0.32-0.81,0.65c-1.58,1.33-2.71,2.18-3.36,2.55
				c0.08-0.16,0.2-0.32,0.4-0.65c0.28-0.44,0.24-1.05-0.16-1.37c-0.4-0.36-0.97-0.36-1.46,0c-1.13,1.09-2.39,1.82-3.64,2.59
				c-0.65,0.36-1.29,0.77-1.94,1.21c-0.32,0.2-0.65,0.4-0.97,0.57c0.32-1.05,1.13-1.94,2.02-2.87c2.91-3.19,6.35-6.11,9.71-8.94
				c1.29-1.09,2.63-2.18,3.88-3.32c8.57-7.48,17.47-14.27,27.13-20.79c8.29-5.54,16.66-8.57,24.91-8.98c2.63-0.16,7.36,0,9.5,2.51
				c1.05,1.21,1.37,3.32,1.01,5.46c-0.97-0.12-1.86,1.29-1.86,1.29c-0.53-0.28-1.09-0.44-1.66-0.36c-0.97,0.16-1.46,1.09-1.21,2.02
				v0.08c0,0,0.08,0.24,0.12,0.4c0,0.04-0.08,0.08-0.12,0.16c-0.04,0-0.08,0.08-0.16,0.08c-0.08,0.04-0.16,0.08-0.2,0.16
				c-0.12,0.12-0.24,0.2-0.4,0.32c-0.24,0.2-0.49,0.36-0.73,0.61c-1.01,1.09-1.33,2.39-0.89,3.84c0,0.08,0.04,0.16,0.08,0.24
				c0.49,1.33,0.32-0.85,1.54-1.42c1.01-0.49,1.94-0.57,2.63-0.53c-0.4,0.32-0.81,0.73-1.17,1.17c-1.25,1.42-1.94,3.36-1.94,5.22
				c-0.08,0-0.16,0-0.24,0.04l0,0l0,0c-1.58,0.36-3.03,1.78-3.36,3.44l-0.08,0.44h0.44c0.73-0.04,1.37-0.4,1.82-0.73
				c-0.49,1.78-0.4,3.64,0.24,5.26c-1.13,1.01-1.9,2.43-2.22,3.88H82.98z M85.04,43.29c-0.04,0.2-0.12,0.4-0.16,0.61
				c-0.28,0.77-0.69,1.42-1.13,1.9c-0.04,0-0.12,0.08-0.2,0.08c-0.12-1.62,0.49-3.4,1.66-4.65c-0.12,0.61-0.12,1.25-0.16,1.86
				C85.04,43.17,85.04,43.21,85.04,43.29z M84.96,34.11c-0.4,0.4-0.89,0.69-1.33,0.85c0.4-1.05,1.33-1.94,2.35-2.31l0,0
				c-0.16,0.24-0.28,0.49-0.44,0.77C85.37,33.67,85.16,33.91,84.96,34.11z M85.65,35.08c0.16-0.44,0.32-0.93,0.49-1.37
				c0.08-0.12,0.12-0.2,0.2-0.32c0,0.08,0,0.12,0.08,0.2c0.08,0.28,0.16,0.57,0.24,0.81c0.2,0.85,0.28,1.7,0.24,2.55
				c-0.08,1.09-0.36,2.06-0.77,2.87l-0.2,0.28v-0.08c-0.65-1.54-0.73-3.32-0.24-4.93L85.65,35.08z M85.73,43.33
				c0.16-0.69,0.24-1.42,0.2-2.02l0,0c0,0,0.12,0.16,0.2,0.28c0.12,0.28,0.24,0.57,0.32,0.81c0.16,0.36,0.36,0.73,0.61,1.01
				c0.12,0.32,0.24,0.69,0.32,1.01c0.2,1.09,0.2,2.14,0,3.07l-0.44-0.08c-0.81-1.13-1.25-2.59-1.29-4.08L85.73,43.33z M86.42,48.63
				c-0.12,0.57-0.16,1.17-0.2,1.78c-0.08,0.32-0.16,0.61-0.24,0.85c-0.36,0.85-0.85,1.58-1.37,2.06c-0.12-1.7,0.57-3.48,1.82-4.73
				c0,0,0,0.04,0,0.08L86.42,48.63z M87.83,59.14c-0.28,0.89-0.69,1.66-1.17,2.18c-0.28-1.66,0.24-3.52,1.37-4.89
				C88.16,57.36,88.04,58.42,87.83,59.14z M88.56,55.54c0,0,0,0,0-0.04l-0.16-0.24l-0.08-0.08c-0.89-1.21-1.37-2.79-1.37-4.41
				c0-0.08,0-0.16,0-0.28c0.12-0.49,0.2-1.05,0.2-1.58c0.69,0.93,1.21,2.06,1.5,3.19c0.24,1.21,0.24,2.47-0.04,3.44L88.56,55.54z
				 M89.41,61.65c-0.57-1.33-0.77-2.99-0.49-4.65c0.77,0.89,1.33,2.02,1.66,3.15c0.2,0.81,0.28,1.66,0.24,2.47v0.16l-0.08,0.49l0,0
				c0,0.12,0,0.2-0.04,0.32c-0.44-0.44-0.89-1.13-1.25-1.98L89.41,61.65z M90.1,65.9c0.16-0.36,0.36-0.81,0.61-1.13
				c0,0.32,0.08,0.65,0.16,0.97c0.04,0.57,0,1.13-0.08,1.7c-0.2,0.93-0.53,1.74-0.97,2.35c-0.32-1.21-0.2-2.63,0.32-3.84L90.1,65.9z
				 M48.89,60.15c-0.53,0.2-1.09,0.49-1.7,0.77c-2.06,0.97-4.41,2.1-7.44,1.25c-2.22-0.73-3.56-1.74-4.21-2.35l3.96-0.36l-0.97-2.91
				c0.73,0.49,1.74,1.13,2.39,1.37l0.2,0.08c0.97,0.32,2.02,0.65,5.01-0.53c1.58-0.65,2.87-0.89,4.04-0.73
				c1.37,0.16,2.35,1.01,3.32,1.86c0.65,0.57,1.33,1.17,1.82,1.86c-1.9-0.97-4.25-1.09-6.35-0.32H48.89z M51.64,60.36
				c1.5,0,2.95,0.4,4.12,1.25c0.61,2.22-0.81,4.33-1.21,4.89c-3.56-0.16-5.26-1.29-5.9-1.9C49.54,63.96,51.2,62.46,51.64,60.36z
				 M53.18,75.2c-3.03-1.94-4.29-7.48-4.69-9.83c1.74,1.42,6.96,3.32,18.68-0.28l0,0c3.6-1.13,7.16-1.7,10.59-1.7l0,0
				c4.57,0,8.45,0.97,11.65,2.35c-0.65,1.58-0.69,3.36-0.12,4.85l0.2,0.49l0.36-0.32c0.73-0.65,1.29-1.78,1.54-3.03
				c0.57,1.33,1.5,2.43,2.59,3.19c-0.65,0.65-1.21,1.66-1.58,2.75c0,0.12-0.04,0.24-0.08,0.32c-4.08-1.37-11.61-2.95-21.63-1.05
				c-1.42,0.36-2.75,0.73-4,1.09l0,0l0,0c0,0-0.2,0.04-0.32,0.08c-6.03,1.7-10.39,2.91-13.22,1.09L53.18,75.2z M57.87,86.12
				c-0.2,5.86-0.08,11.61,0.36,17.15l-4.61-3.03c-0.85-5.54-1.37-11.44-1.66-18L57.87,86.12z M58.47,105.61
				c1.54,15.12,5.54,28.99,11.93,41.09c2.63,4.97,5.7,9.66,9.1,13.87c-0.61,0.77-1.62,1.9-2.91,3.15c-1.9-1.94-3.76-3.92-5.46-6.03
				c-3.32-3.96-6.27-8.29-8.78-12.82c-2.51-4.57-4.61-9.38-6.19-14.32c-3.11-9.58-4.49-19.65-4.93-29.72l7.28,4.77L58.47,105.61z
				 M31.54,68.89L44,77.06c0.12,6.51,0.49,12.29,1.05,17.59l-14.19-9.3c0-5.26,0.24-10.8,0.65-16.46L31.54,68.89z M42.78,167.16
				c0,0-6.11-5.98-11.08-19.21c-4.53-12.05-9.06-32.76-5.14-63.21l14.92,9.75c0,1.82,0.08,3.6,0.12,5.42
				c0.4,10.39,1.74,20.79,4.97,30.65c1.58,4.93,3.68,9.71,6.19,14.32c2.51,4.53,5.46,8.82,8.78,12.82
				c3.03,3.64,6.35,7.04,9.87,10.19c-6.43,4.25-15.93,7.32-27.13,0.85C43.55,168,43.03,167.44,42.78,167.16z M46.3,170.59
				c3.88,1.86,7.56,2.59,10.96,2.59c11.69,0,20.02-8.86,22.69-12.05c3.28,4.04,6.83,7.6,10.47,10.64
				C69.31,186.04,53.22,176.5,46.3,170.59z M82.86,192.15c1.46-2.31,7.08-11.28,9.38-19.01c1.46,1.09,2.87,2.1,4.37,2.99l-2.31,18
				c-1.21-0.61-4.77-2.1-11.4-1.98H82.86z M90.3,193.52c2.22,0.49,3.48,1.13,3.88,1.33c0,0.04,0,0.12-0.12,0.24
				c-0.2,0.24-0.81,0.69-2.55,0.85c-0.89,0.08-1.54,0.36-2.02,0.73l0.77-3.15L90.3,193.52z M96.04,203.07c0,0-0.36,0.32-0.49,0.53
				l-0.12-3.03c0.32,0.08,0.57,0.2,0.73,0.32c0.49,0.36,0.53,0.77,0.53,0.77l0,0c0,0.2,0,0.81-0.69,1.37L96.04,203.07z
				 M96.77,200.52c-0.81-0.73-1.98-0.85-3.03-0.77c-1.05,0.08-2.14,0.32-3.19,0.24c-0.4,0-0.85-0.12-1.13-0.44
				c-0.49-0.49-0.4-1.33,0-1.86c0.44-0.53,1.09-0.81,1.78-0.93c0.69-0.12,1.33-0.16,2.02-0.36c0.65-0.2,1.29-0.61,1.54-1.21
				c0.12-0.28,0.16-0.57,0.2-0.85l0.97-7.56c0.16-1.25,0.32-2.51,0.49-3.76l0.49-3.76c0.08-0.65,0.16-1.25,0.24-1.9
				c0-0.16,0-0.32,0.04-0.49c0-0.08,0-0.16,0-0.24c0-0.08,0.08,0,0.16,0c0.28,0.16,0.57,0.32,0.81,0.49
				c0.12,0.08,0.28,0.16,0.4,0.24c-0.61,7.72-1.21,15.45-1.82,23.21L96.77,200.52z M107.81,203.59c0,0-0.28-0.36-0.49-0.53
				c-0.53-0.44-0.65-0.89-0.69-1.17v-0.2c0,0,0.08-0.44,0.57-0.77c0.16-0.12,0.4-0.24,0.73-0.32l-0.12,3.03L107.81,203.59z
				 M114.08,199.3c0,0-0.08,0.12-0.12,0.16c-0.36,0.36-0.93,0.49-1.5,0.53c-1.01,0-2.02-0.2-3.03-0.24
				c-1.01-0.04-2.1,0.08-2.87,0.73c-0.57-7.36-1.17-14.76-1.74-22.12c0-0.32-0.04-0.65,0.08-0.93c0.2-0.49,0.81-0.69,1.33-0.85
				c0.69,5.58,1.33,11.16,2.02,16.74c0.12,0.93,0.28,1.98,0.97,2.63c0.89,0.77,2.14,0.65,3.19,0.93c0.97,0.24,2.39,1.33,1.66,2.47
				V199.3z M113.83,196.68c-0.44-0.36-1.09-0.65-2.02-0.73c-1.74-0.16-2.35-0.61-2.55-0.85c-0.08-0.12-0.12-0.2-0.12-0.24
				c0.4-0.24,1.66-0.85,3.88-1.33l0.77,3.15L113.83,196.68z M120.51,192.15c-6.59-0.12-10.19,1.37-11.4,1.98l-2.31-18
				c1.42-0.89,2.87-1.86,4.33-2.99C113.39,180.86,119.01,189.88,120.51,192.15z M101.66,175.81c-3.76-1.86-8.17-4.81-12.66-9.02
				c0.16-0.44,0.16-0.93,0.16-1.37c0-0.69,0-1.33,0.44-1.62c0.08-0.04,0.16-0.08,0.24-0.12c0.16-0.08,0.32-0.16,0.49-0.28
				c0.16-0.16,0.24-0.32,0.36-0.49c0.04-0.12,0.12-0.2,0.16-0.28c0.2-0.2,0.57-0.24,0.97-0.28c0.49-0.04,1.05-0.12,1.46-0.53
				c0.4-0.36,0.53-0.97,0.32-1.42c-0.04-0.08-0.08-0.2-0.16-0.28c0-0.04-0.08-0.12-0.08-0.12c-0.08-0.24,0-0.49,0.16-0.73
				c0.4-0.49,1.21-0.81,1.78-0.77c0.24,0,0.49,0,0.73,0.08c0.65,0.08,1.37,0.2,1.98-0.24c0.24-0.16,0.4-0.4,0.57-0.61
				c0.16-0.24,0.32-0.44,0.53-0.53c0.12-0.04,0.32,0,0.49,0c0.36,0,0.81,0,1.13-0.36v-0.08c0.12-0.2,0.2-0.24,0.44-0.2l4,0.24
				c0.24,0,0.49,0,0.69,0.16c0.12,0.08,0.2,0.2,0.32,0.32c0.12,0.16,0.28,0.32,0.44,0.49c0.44,0.28,1.05,0.32,1.74,0
				c0.16-0.08,0.32-0.16,0.49-0.24c0.28-0.12,0.53-0.28,0.81-0.32c0.49-0.16,1.29,0.12,1.62,0.61c0.2,0.28,0.2,0.53,0.04,0.73
				c-0.04,0.04-0.08,0.08-0.16,0.12c-0.16,0.12-0.36,0.24-0.44,0.53c-0.12,0.49,0.24,0.89,0.69,1.05h0.16c0,0,0.36,0.16,0.36,0.2
				c0.16,0.44-0.04,0.81-0.44,1.42c-0.24,0.4-0.53,0.81-0.61,1.25l0,0v0.08c0.08,0.49,0.61,0.69,0.85,0.77
				c0.32,0.12,1.09,0.44,1.17,1.01c0,0.08,0,0.2,0,0.28c0,0.2,0,0.4,0.12,0.65c0.04,0.16,0.16,0.24,0.24,0.36
				c0.04,0.08,0.08,0.12,0.12,0.2c0.04,0.36,0.16,0.65,0.32,0.89c-4.33,3.92-8.53,6.71-12.13,8.49L101.66,175.81z M112.95,171.68
				c3.48-2.83,7.04-6.35,10.51-10.59c2.63,3.19,10.96,12.09,22.69,12.09c3.4,0,7.04-0.73,10.92-2.59
				C150.07,176.5,133.97,185.92,112.95,171.68z M171.66,147.91c-4.97,13.22-10.92,19.09-10.96,19.13c-0.28,0.32-0.81,0.89-1.58,1.66
				c-11.16,6.43-20.62,3.4-27.05-0.81c3.52-3.15,6.79-6.51,9.83-10.15c3.32-3.96,6.27-8.29,8.78-12.82
				c2.51-4.57,4.61-9.38,6.19-14.32c3.24-9.87,4.57-20.3,4.97-30.65c0.08-1.86,0.12-3.72,0.16-5.58l14.8-9.71
				c3.92,30.45-0.61,51.15-5.14,63.21L171.66,147.91z M183.55,83l-4.41-0.97l0.89-4.41l8.73-1.9l-5.26,7.24L183.55,83z"/>
			<path class="st0" d="M127.91,68.53c0.49,0,0.97,0.08,1.46,0.12c0.24,0,0.44,0.08,0.57,0.12c0.2,0.12,0.28,0.32,0.28,0.61
				c0,0.24,0,0.49-0.04,0.73c0,0.16,0,0.28,0,0.36v0.16c0.28,0,0.53,0.04,0.77,0.08v-0.08c0,0-0.12-0.16-0.16-0.28
				c0-0.08,0-0.2,0-0.36c0-0.2,0-0.4,0.04-0.57c0-0.24,0-0.44-0.08-0.57c-0.08-0.12-0.2-0.2-0.36-0.32c0.2-0.08,0.4-0.2,0.53-0.36
				c0.16-0.16,0.24-0.36,0.28-0.61c0.08-0.49-0.12-0.85-0.53-1.09c-0.24-0.12-0.53-0.2-0.89-0.24c-0.77-0.08-1.5-0.12-2.26-0.16
				c-0.12,1.46-0.2,2.91-0.28,4.33c0.2,0,0.4,0,0.61,0.04c0.04-0.61,0.08-1.25,0.12-1.86L127.91,68.53z M128.07,66.54
				c0.53,0,1.05,0.08,1.62,0.12c0.24,0,0.4,0.08,0.53,0.16c0.24,0.12,0.32,0.36,0.28,0.69c0,0.28-0.16,0.49-0.32,0.57
				c-0.2,0.08-0.44,0.12-0.73,0.08c-0.49-0.04-0.97-0.08-1.5-0.12C127.99,67.56,128.03,67.07,128.07,66.54z"/>
			<path class="st0" d="M135.27,70.39c0.24-0.32,0.44-0.73,0.53-1.17c0.12-0.57,0.08-1.09-0.16-1.54c-0.28-0.49-0.73-0.81-1.42-0.89
				c-0.65-0.12-1.29-0.2-1.94-0.28c-0.24,1.42-0.44,2.87-0.65,4.29c0.61,0.08,1.21,0.16,1.82,0.28
				C134.22,71.19,134.82,70.99,135.27,70.39z M132.36,70.39c0.16-1.09,0.36-2.18,0.53-3.32c0.4,0.04,0.77,0.12,1.13,0.2
				c0.53,0.08,0.89,0.28,1.05,0.65c0.16,0.32,0.2,0.77,0.08,1.29c0,0.16-0.08,0.28-0.12,0.44c-0.12,0.24-0.24,0.44-0.4,0.61
				c-0.2,0.2-0.4,0.28-0.69,0.32c-0.12,0-0.32,0-0.53,0c-0.36-0.04-0.73-0.12-1.09-0.16L132.36,70.39z"/>
			<path class="st0" d="M139.51,71.88c-0.89-0.24-1.78-0.49-2.67-0.69c0.12-0.49,0.24-0.97,0.36-1.42c0.85,0.2,1.66,0.4,2.51,0.65
				c0.04-0.16,0.08-0.32,0.16-0.49c-0.85-0.24-1.66-0.44-2.51-0.65c0.12-0.44,0.2-0.85,0.32-1.29c0.93,0.2,1.86,0.44,2.79,0.73
				c0.04-0.16,0.12-0.32,0.16-0.53c-1.13-0.32-2.26-0.61-3.44-0.85c-0.32,1.42-0.69,2.83-1.01,4.25c1.09,0.24,2.14,0.53,3.24,0.81
				c0.04-0.16,0.08-0.32,0.16-0.49L139.51,71.88z"/>
			<path class="st0" d="M140.69,72.77c0.36-1.13,0.73-2.22,1.09-3.36c0.4,1.37,0.77,2.71,1.09,4.08c0.2,0.08,0.44,0.16,0.65,0.24
				c0.53-1.37,1.05-2.71,1.58-4.04c-0.2-0.08-0.4-0.16-0.57-0.2c-0.4,1.09-0.85,2.18-1.25,3.32c-0.32-1.37-0.65-2.71-1.05-4.08
				c-0.24-0.08-0.49-0.16-0.73-0.24c-0.44,1.37-0.89,2.75-1.33,4.17c0.2,0.04,0.36,0.12,0.57,0.16L140.69,72.77z"/>
			<path class="st0" d="M117.56,70.59c0.2,0,0.4-0.04,0.61-0.08c-0.04-0.57-0.12-1.17-0.16-1.74c0.53-0.93,1.05-1.86,1.66-2.75
				c-0.24,0-0.53,0-0.77,0.04c-0.44,0.73-0.85,1.46-1.21,2.22c-0.53-0.65-1.05-1.29-1.62-1.9c-0.24,0-0.53,0.08-0.77,0.12
				c0.73,0.77,1.46,1.54,2.14,2.35c0.08,0.57,0.12,1.17,0.2,1.74H117.56z"/>
			<path class="st0" d="M124.07,70.39c0.77,0,1.33-0.24,1.78-0.73c0.36-0.4,0.57-0.93,0.61-1.62c0-0.61-0.08-1.09-0.4-1.5
				c-0.4-0.49-1.01-0.77-1.9-0.77c-0.85,0-1.5,0.28-1.9,0.85c-0.32,0.44-0.49,0.93-0.44,1.54c0,0.65,0.24,1.21,0.61,1.62
				c0.4,0.44,0.97,0.65,1.7,0.65L124.07,70.39z M122.93,66.79c0.32-0.32,0.73-0.49,1.25-0.49c0.53,0,0.93,0.16,1.21,0.49
				c0.28,0.32,0.4,0.73,0.4,1.25c0,0.49-0.16,0.93-0.44,1.29c-0.24,0.36-0.65,0.53-1.21,0.53s-1.01-0.16-1.25-0.49
				s-0.4-0.73-0.4-1.21C122.49,67.56,122.65,67.11,122.93,66.79z"/>
			<path class="st0" d="M56.29,73.82c-0.44-1.25-0.93-2.47-1.42-3.72c-0.2,0.08-0.4,0.16-0.65,0.24c0.57,1.37,1.09,2.79,1.62,4.21
				c0.93-0.32,1.86-0.65,2.83-0.93c-0.04-0.16-0.12-0.32-0.16-0.53c-0.77,0.24-1.5,0.49-2.26,0.73L56.29,73.82z"/>
			<path class="st0" d="M58.15,69.21c0.49,1.42,0.93,2.87,1.37,4.29c0.2-0.04,0.4-0.12,0.61-0.16c-0.44-1.46-0.85-2.87-1.33-4.29
				c-0.2,0.08-0.44,0.12-0.65,0.2V69.21z"/>
			<path class="st0" d="M63.85,70.1c0,0-0.36-0.16-0.61-0.16c0.16-0.12,0.24-0.24,0.32-0.32c0.12-0.2,0.16-0.44,0.08-0.73
				c-0.04-0.24-0.16-0.44-0.36-0.61c-0.32-0.24-0.77-0.32-1.33-0.2c-0.69,0.16-1.42,0.32-2.1,0.53c0.44,1.42,0.85,2.87,1.25,4.33
				c0.65-0.16,1.25-0.32,1.9-0.49c0.61-0.12,1.01-0.4,1.21-0.81c0.16-0.28,0.16-0.53,0.12-0.81C64.26,70.51,64.1,70.26,63.85,70.1z
				 M61.02,70.26c-0.12-0.44-0.24-0.89-0.4-1.33c0.4-0.12,0.77-0.2,1.17-0.28c0.28-0.08,0.53-0.08,0.65-0.08
				c0.28,0.04,0.44,0.2,0.53,0.49c0.08,0.28,0,0.53-0.2,0.69c-0.12,0.12-0.32,0.2-0.61,0.24c-0.4,0.08-0.77,0.16-1.17,0.28H61.02z
				 M63.65,71.44c-0.12,0.24-0.36,0.4-0.73,0.49c-0.44,0.12-0.89,0.2-1.33,0.32c-0.12-0.53-0.28-1.01-0.4-1.54
				c0.4-0.12,0.85-0.2,1.25-0.32c0.28-0.08,0.49-0.08,0.69-0.04c0.32,0.04,0.53,0.24,0.61,0.57c0.04,0.2,0,0.36-0.04,0.53H63.65z"/>
			<path class="st0" d="M68.75,70.63c-0.97,0.12-1.9,0.28-2.87,0.44c-0.08-0.49-0.2-1.01-0.28-1.5c0.89-0.16,1.78-0.28,2.67-0.4
				c0-0.16-0.04-0.32-0.08-0.53c-0.89,0.12-1.78,0.24-2.67,0.4c-0.08-0.44-0.2-0.89-0.28-1.33c0.97-0.16,1.98-0.32,2.95-0.44
				c0-0.16-0.04-0.36-0.08-0.53c-1.21,0.16-2.43,0.36-3.64,0.57c0.32,1.46,0.65,2.95,0.93,4.41c1.13-0.2,2.31-0.4,3.44-0.53
				c0-0.16-0.04-0.36-0.08-0.53V70.63z"/>
			<path class="st0" d="M70.65,70.83c-0.08-0.65-0.16-1.25-0.24-1.9c0.49-0.04,1.01-0.08,1.5-0.12c0.28,0,0.49,0,0.61,0
				c0.24,0.08,0.36,0.28,0.4,0.57c0.04,0.24,0.08,0.49,0.12,0.77c0,0.16,0,0.28,0.04,0.36l0.08,0.16c0.24,0,0.53,0,0.81-0.04v-0.12
				c0,0-0.2-0.12-0.24-0.24c0-0.08-0.04-0.2-0.08-0.36c0-0.2-0.04-0.4-0.08-0.61c0-0.24-0.08-0.44-0.2-0.57
				c-0.12-0.12-0.24-0.2-0.44-0.24c0.2-0.12,0.36-0.24,0.49-0.44c0.12-0.16,0.16-0.4,0.12-0.69c-0.04-0.53-0.32-0.85-0.81-1.01
				c-0.28-0.08-0.61-0.12-0.97-0.08c-0.77,0.08-1.58,0.16-2.35,0.24c0.24,1.5,0.44,2.95,0.65,4.45c0.2,0,0.4-0.04,0.65-0.08
				L70.65,70.83z M71.82,66.75c0.24,0,0.44,0,0.57,0.04c0.28,0.08,0.4,0.32,0.44,0.65c0,0.28-0.04,0.53-0.2,0.65
				c-0.16,0.12-0.4,0.2-0.73,0.24c-0.53,0-1.05,0.08-1.54,0.16c-0.08-0.53-0.12-1.01-0.2-1.54c0.57-0.04,1.09-0.12,1.66-0.16
				L71.82,66.75z"/>
			<path class="st0" d="M75.42,66.5c0.08,1.33,0.12,2.63,0.2,3.96c0.2,0,0.44,0,0.65,0c0-1.33-0.08-2.63-0.16-3.96
				c0.57,0,1.13,0,1.74,0c0-0.16,0-0.36,0-0.53c-1.42,0-2.79,0-4.17,0.08c0,0.16,0,0.36,0.04,0.53c0.57,0,1.13-0.04,1.7-0.04
				L75.42,66.5z"/>
			<path class="st0" d="M78.17,70.43c0.16-0.44,0.36-0.89,0.53-1.33c0.65,0,1.29,0.04,1.98,0.08c0.16,0.44,0.28,0.93,0.44,1.37
				c0.24,0,0.49,0,0.73,0.04c-0.49-1.54-1.05-3.07-1.66-4.61c-0.24,0-0.53,0-0.81,0c-0.65,1.46-1.29,2.95-1.86,4.45
				c0.2,0,0.44,0,0.69,0H78.17z M79.75,66.67c0.24,0.69,0.49,1.33,0.73,2.02c-0.53,0-1.05-0.04-1.58-0.08
				C79.18,67.96,79.46,67.31,79.75,66.67z"/>
			<path class="st0" d="M86.34,70.14c0.24-0.36,0.4-0.77,0.44-1.25c0.08-0.61,0-1.13-0.36-1.58c-0.36-0.49-0.89-0.81-1.62-0.89
				s-1.42-0.16-2.1-0.2c-0.08,1.5-0.16,2.99-0.28,4.49c0.65,0.08,1.29,0.12,1.98,0.2c0.85,0.08,1.46-0.16,1.9-0.77L86.34,70.14z
				 M83.18,70.26c0.08-1.13,0.16-2.31,0.24-3.44c0.4,0.04,0.85,0.08,1.25,0.12c0.57,0.08,0.97,0.28,1.17,0.61
				c0.24,0.32,0.32,0.81,0.24,1.33c0,0.16-0.04,0.28-0.12,0.44c-0.08,0.28-0.2,0.49-0.36,0.65c-0.2,0.2-0.4,0.32-0.69,0.36
				c-0.16,0-0.32,0-0.57,0c-0.4-0.04-0.81-0.08-1.21-0.12L83.18,70.26z"/>
			<path class="st0" d="M106.6,148.8h-0.08v-0.4h-0.65v-1.13h1.21v-2.91l0,0h-0.93h-0.28v-0.85c0-0.24-0.08-0.44-0.28-0.53
				c-0.2-0.12-0.44-0.12-0.61,0c-0.2,0.12-0.28,0.32-0.28,0.53v0.89h-1.01c-0.24,0-0.51,0-0.81,0h-0.2v-0.89
				c0-0.24-0.12-0.44-0.28-0.53c-0.2-0.12-0.44-0.12-0.65,0c-0.16,0.12-0.28,0.32-0.28,0.53v0.89h-0.2c-0.49,0-0.81,0-0.81,0h-1.01
				v-0.89c0-0.24-0.12-0.44-0.28-0.53c-0.2-0.12-0.44-0.12-0.65,0c-0.16,0.12-0.28,0.32-0.28,0.53v0.89h-1.21v2.91h1.21v1.13h-0.85
				v0.4H97.3l-0.81-1.05h-3.11l1.42,2.06l1.74,1.13h5.46v0.04l0,0l0,0h5.46l1.74-1.17l1.42-2.06h-3.11l-0.81,1.05L106.6,148.8z
				 M104.33,145.04h2.06v1.54h-2.06V145.04z M104.66,147.26v1.13h-0.81v0.44h-0.77v-0.44h-0.53v-1.13h2.06H104.66z M100.94,145.04
				h0.2c0.49,0,0.73-0.16,0.81-0.24c0.12,0.08,0.36,0.24,0.81,0.24h0.2v1.54h-2.1v-1.54H100.94z M101.38,147.26v1.13h-0.69v0.49
				h-0.77v-0.49h-0.61v-1.13H101.38z M97.58,146.57v-1.54h2.06v1.54H97.58z M109.22,148.43l-0.65,0.93l-1.42,0.89h-5.26h-5.26
				l-1.42-0.89l-0.65-0.93h1.46l0.81,1.01h1.09v-0.4h1.25v0.44h2.14v-0.44h1.05v0.49h2.14v-0.49h1.25v0.4h1.09l0.81-1.05h1.46
				L109.22,148.43z"/>
			<path class="st0" d="M106.6,168.25h-0.08v-0.4h-0.65v-1.13h1.21v-2.91l0,0h-0.93h-0.28v-0.85c0-0.24-0.08-0.44-0.28-0.53
				c-0.2-0.12-0.44-0.12-0.61,0c-0.2,0.12-0.28,0.32-0.28,0.53v0.89h-1.01c-0.24,0-0.51,0-0.81,0h-0.2v-0.89
				c0-0.24-0.12-0.44-0.28-0.53c-0.2-0.12-0.44-0.12-0.65,0c-0.16,0.12-0.28,0.32-0.28,0.53v0.89h-0.2c-0.49,0-0.81,0-0.81,0h-1.01
				v-0.89c0-0.24-0.12-0.44-0.28-0.53c-0.2-0.12-0.44-0.12-0.65,0c-0.16,0.12-0.28,0.32-0.28,0.53v0.89h-1.21v2.91h1.21v1.13h-0.85
				v0.4H97.3l-0.81-1.05h-3.11l1.42,2.06l1.74,1.13h5.46v0.04l0,0l0,0h5.46l1.74-1.17l1.42-2.06h-3.11l-0.81,1.05L106.6,168.25z
				 M104.33,164.49h2.06v1.54h-2.06V164.49z M104.66,166.71v1.13h-0.81v0.44h-0.77v-0.44h-0.53v-1.13h2.06H104.66z M100.94,164.49
				h0.2c0.49,0,0.73-0.16,0.81-0.24c0.12,0.08,0.36,0.24,0.81,0.24h0.2v1.54h-2.1v-1.54H100.94z M101.38,166.71v1.13h-0.69v0.49
				h-0.77v-0.49h-0.61v-1.13H101.38z M97.58,166.02v-1.54h2.06v1.54H97.58z M109.22,167.88l-0.65,0.93l-1.42,0.89h-5.26h-5.26
				l-1.42-0.89l-0.65-0.93h1.46l0.81,1.01h1.09v-0.4h1.25v0.44h2.14v-0.44h1.05v0.49h2.14v-0.49h1.25v0.4h1.09l0.81-1.05h1.46
				L109.22,167.88z"/>
			<path class="st0" d="M90.62,63.35L90.62,63.35L90.62,63.35z"/>
		</g>
	</g>
	<g>
		<g>
			<polygon class="st1" points="474.39,125.2 480.62,125.2 480.62,101.98 489.09,101.98 489.09,97.09 480.62,97.09 474.39,97.09 
				465.96,97.09 465.96,101.98 474.39,101.98 			"/>
			<path class="st1" d="M512.17,117.78h9.68l2.06,7.41h6.35l-8.15-26.48c-0.14-0.49-0.4-0.88-0.79-1.18
				c-0.39-0.3-0.85-0.45-1.36-0.45h-5.91c-0.52,0-0.97,0.15-1.36,0.45c-0.39,0.3-0.66,0.69-0.79,1.18l-8.19,26.48h6.39
				L512.17,117.78z M515.85,104.55c0.14-0.46,0.25-0.93,0.35-1.41c0.09-0.47,0.18-0.93,0.26-1.36h1.1c0.08,0.43,0.18,0.89,0.29,1.36
				c0.11,0.48,0.22,0.94,0.33,1.41l2.38,8.55h-7.08L515.85,104.55z"/>
			<path class="st1" d="M567.86,124.87l-0.28-4.68h-9.82c-0.71,0-1.25-0.18-1.63-0.53c-0.38-0.35-0.57-0.87-0.57-1.55V97.09h-6.23
				v22.36c0,1.71,0.52,3.12,1.57,4.22c1.05,1.1,2.59,1.65,4.62,1.65c2.09,0,4.19-0.02,6.29-0.06
				C563.92,125.22,565.94,125.09,567.86,124.87z"/>
			<path class="st1" d="M593.32,125.32c1.52,0,3.05-0.01,4.6-0.02c1.55-0.01,3.07-0.05,4.56-0.12c1.49-0.07,2.89-0.16,4.2-0.26
				l-0.29-4.52H595.6c-0.68,0-1.19-0.18-1.53-0.53c-0.34-0.35-0.51-0.87-0.51-1.55v-5.54h11.32v-4.4h-11.32v-4.4
				c0-0.68,0.17-1.19,0.51-1.55c0.34-0.35,0.85-0.53,1.53-0.53h10.79l0.29-4.52c-1.3-0.14-2.7-0.23-4.2-0.29
				c-1.49-0.05-3.01-0.09-4.56-0.1c-1.55-0.01-3.08-0.02-4.6-0.02c-1.79,0-3.24,0.52-4.34,1.55c-1.1,1.03-1.65,2.4-1.65,4.11v17.03
				c0,1.68,0.55,3.05,1.65,4.09C590.08,124.8,591.53,125.32,593.32,125.32z"/>
			<path class="st1" d="M633.28,108.74c0-0.73-0.03-1.47-0.08-2.22c-0.05-0.75-0.12-1.49-0.2-2.22h0.45
				c0.22,0.71,0.48,1.44,0.79,2.2c0.31,0.76,0.63,1.45,0.96,2.08l7.78,14.74c0.3,0.63,0.62,1.09,0.98,1.41
				c0.35,0.31,0.87,0.47,1.55,0.47h3.42c1.49,0,2.24-0.75,2.24-2.24V97.09h-5.87l0.04,15.93c0,0.76,0.02,1.53,0.06,2.3
				c0.04,0.77,0.1,1.57,0.18,2.38h-0.49c-0.33-0.81-0.67-1.6-1.02-2.36c-0.35-0.76-0.69-1.45-1.02-2.08l-7.54-14.3
				c-0.33-0.62-0.66-1.09-1-1.41c-0.34-0.31-0.84-0.47-1.49-0.47h-3.38c-1.52,0-2.28,0.75-2.28,2.24v25.86h5.91V108.74z"/>
			<polygon class="st1" points="679.38,125.2 685.62,125.2 685.62,101.98 694.09,101.98 694.09,97.09 685.62,97.09 679.38,97.09 
				670.95,97.09 670.95,101.98 679.38,101.98 			"/>
			<path class="st1" d="M715.31,122.69c0.95,1.1,2.2,1.89,3.75,2.36c1.55,0.47,3.43,0.71,5.66,0.71c2.23,0,4.11-0.24,5.66-0.71
				c1.55-0.47,2.79-1.26,3.73-2.36c0.94-1.1,1.62-2.59,2.06-4.48c0.43-1.89,0.65-4.24,0.65-7.07c0-2.82-0.22-5.18-0.65-7.07
				c-0.43-1.89-1.12-3.38-2.06-4.48c-0.94-1.1-2.18-1.89-3.73-2.36c-1.55-0.47-3.44-0.71-5.66-0.71c-2.23,0-4.11,0.24-5.66,0.71
				c-1.55,0.48-2.8,1.26-3.75,2.36c-0.95,1.1-1.64,2.59-2.08,4.48c-0.43,1.89-0.65,4.24-0.65,7.07c0,2.82,0.22,5.18,0.65,7.07
				C713.67,120.1,714.36,121.59,715.31,122.69z M719.65,105.26c0.34-1.4,0.91-2.38,1.71-2.95c0.8-0.57,1.92-0.86,3.36-0.86
				c1.41,0,2.52,0.29,3.32,0.86c0.8,0.57,1.37,1.55,1.71,2.95c0.34,1.4,0.51,3.36,0.51,5.89c0,2.5-0.17,4.45-0.51,5.87
				c-0.34,1.41-0.91,2.4-1.71,2.97c-0.8,0.57-1.91,0.86-3.32,0.86c-1.44,0-2.56-0.29-3.36-0.86c-0.8-0.57-1.37-1.56-1.71-2.97
				c-0.34-1.41-0.51-3.37-0.51-5.87C719.14,108.62,719.31,106.66,719.65,105.26z"/>
			<path class="st1" d="M497.67,186.66c0,15.16,12.29,27.45,27.45,27.45h1.08v-27.45L497.67,186.66L497.67,186.66z"/>
			<polygon class="st1" points="593.98,186.66 565.86,186.66 565.86,214.1 649.32,214.1 649.32,195.42 593.98,195.42 			"/>
			<path class="st1" d="M724.06,188.09c-1.07,1.41-2.41,2.58-4.02,3.52c-1.61,0.94-3.98,1.79-7.13,2.56
				c-3.15,0.77-6.8,1.15-10.95,1.15c-4.76,0-8.86-0.57-12.3-1.71c-3.45-1.14-6.06-2.68-7.83-4.62c-0.71-0.77-1.33-1.55-1.88-2.34
				h-31.77c0.05,0.24,0.1,0.49,0.15,0.73c0.67,3.01,2.14,6.29,4.42,9.84c2.28,3.55,5.26,6.61,8.94,9.19
				c3.68,2.58,8.82,4.74,15.42,6.48c6.59,1.74,14.28,2.61,23.05,2.61h3.92c8.57,0,16.12-0.77,22.65-2.31
				c6.53-1.54,11.58-3.43,15.17-5.67c3.58-2.24,6.51-4.85,8.79-7.83c2.28-2.98,3.75-5.66,4.42-8.03c0.48-1.69,0.78-3.36,0.92-5
				H725.1C724.82,187.08,724.47,187.56,724.06,188.09z"/>
			<rect x="845.76" y="186.66" class="st1" width="28.42" height="61.27"/>
			<rect x="770.54" y="186.66" class="st1" width="28.52" height="27.45"/>
			<polygon class="st1" points="425.13,159.42 490.41,159.42 490.41,182.16 518.93,182.16 518.93,159.42 551.17,159.42 
				551.17,139.04 425.13,139.04 			"/>
			<polygon class="st1" points="640.15,166.66 586.72,166.66 586.72,157.32 641.25,157.32 641.25,139.04 558.6,139.04 558.6,182.16 
				640.15,182.16 			"/>
			<path class="st1" d="M754.09,157.67c-0.97-2.04-2.23-3.97-3.77-5.77c-1.54-1.81-3.67-3.6-6.38-5.37
				c-2.71-1.77-5.82-3.3-9.34-4.57c-3.52-1.27-7.87-2.31-13.06-3.11c-5.19-0.8-10.9-1.21-17.12-1.21h-3.92
				c-8.91,0-16.69,0.85-23.35,2.56c-6.66,1.71-11.82,3.82-15.47,6.33c-3.65,2.51-6.58,5.52-8.79,9.04
				c-2.21,3.52-3.63,6.75-4.27,9.69c-0.64,2.95-0.95,6.09-0.95,9.44v2.91c0,1.55,0.08,3.07,0.23,4.56h30.25
				c-0.63-1.84-0.95-3.76-0.95-5.76v-1.21c0-11.65,8.34-17.48,25.01-17.48c14.13,0,22.33,3.82,24.61,11.45h29.63v-1.31
				c0-1.54-0.15-3.11-0.45-4.72C755.69,161.53,755.06,159.71,754.09,157.67z"/>
			<polygon class="st1" points="866.92,125.66 838.5,125.66 838.5,165.45 791.8,165.45 791.8,96.05 763.28,96.05 763.28,182.16 
				866.92,182.16 			"/>
			<polygon class="st1" points="424.85,93.01 424.85,132.64 444.66,112.83 			"/>
		</g>
	</g>
	<line class="st2" x1="305.58" y1="0" x2="305.58" y2="338.64"/>
</g>
<g>
</g>
<g>
</g>
<g>
</g>
<g>
</g>
<g>
</g>
<g>
</g>
<g>
</g>
<g>
</g>
<g>
</g>
<g>
</g>
<g>
</g>
</svg>
